<svg width="70" height="48" viewBox="0 0 70 48" fill="none" xmlns="http://www.w3.org/2000/svg">
<path d="M41.0647 1.58097C40.4856 2.57585 39.8538 3.88491 39.6959 4.4609C39.4853 5.29869 42.2756 10.5873 50.1726 24.0968L60.9126 42.633L35.1156 42.7901C20.9009 42.8425 9.21323 42.7901 9.10794 42.6854C9.00265 42.5806 11.8982 37.3968 15.4782 31.1657L22.1118 19.803L20.585 17.1326L19.0582 14.5145L18.2685 15.7188C17.4262 17.0802 10.3715 29.1235 4.00118 40.172C1.79 43.9944 0 47.2409 0 47.3456C0 47.5027 15.6362 47.6074 34.7471 47.6074C56.1744 47.6074 69.4941 47.398 69.4941 47.1362C69.4941 46.6125 67.125 42.4759 60.0176 30.3279C58.0697 27.029 53.3315 18.8605 49.4882 12.2629C45.645 5.61287 42.4335 0.114826 42.3282 0.0101013C42.2756 -0.0946236 41.6965 0.638447 41.0647 1.58097Z" fill="#EB5E28"/>
</svg>
