<svg width="67" height="41" viewBox="0 0 67 41" fill="none" xmlns="http://www.w3.org/2000/svg">
<path d="M0.124023 20.5V41H33.5619H66.9997V20.5V0H33.5619H0.124023V20.5ZM65.0108 20.5V38.9306H33.5619H2.11289V20.5V2.0694H33.5619H65.0108V20.5Z" fill="#252422"/>
<path d="M9.32275 10.7997V12.4164H11.8088H14.2949V21.9874V31.5583H15.9109H17.5268V21.9874V12.4164H20.0129H22.499V10.7997V9.18296H15.9109H9.32275V10.7997Z" fill="#252422"/>
<path d="M24.6368 9.93312C27.272 14.7703 36.8683 31.9464 36.9305 31.9464C36.9802 31.9464 38.3973 29.4501 40.1002 26.3849L43.183 20.8363L43.3819 21.1855C43.4937 21.3795 44.8984 23.8886 46.4895 26.7729C48.0806 29.6571 49.423 32.0628 49.4728 32.1145C49.5598 32.218 57.7141 17.6546 57.7141 17.383C57.7141 17.2536 55.9614 13.9684 55.8869 13.9684C55.862 13.9684 54.4325 16.5293 52.7047 19.6593L49.5473 25.3372L49.3485 24.988C49.2366 24.794 48.2297 22.9962 47.1234 20.9915L45.1097 17.3442L47.3472 13.3088C48.5902 11.0972 49.5971 9.26056 49.5971 9.23469C49.5971 9.20882 48.7394 9.18296 47.7076 9.18296H45.8058L41.393 17.1372C38.969 21.5088 36.9553 25.0915 36.918 25.0915C36.8807 25.0915 34.8794 21.5088 32.4555 17.1372L28.0551 9.18296H26.1408H24.2266L24.6368 9.93312Z" fill="#252422"/>
</svg>
