<svg width="99" height="98" viewBox="0 0 99 98" fill="none" xmlns="http://www.w3.org/2000/svg">
<path fill-rule="evenodd" clip-rule="evenodd" d="M82.2625 35.5122C82.6347 34.9521 82.7045 34.2406 82.4209 33.6308C80.8765 30.3097 78.7721 27.2761 76.2023 24.6662C75.7306 24.1872 75.0399 24.0033 74.3851 24.1555L68.1529 25.6039C67.5861 25.7356 66.9923 25.6107 66.5119 25.2824C65.2744 24.4367 63.9645 23.6819 62.5899 23.0293C61.2209 22.3793 59.8149 21.8433 58.3855 21.4203C57.8306 21.2561 57.3606 20.8778 57.1038 20.3591L54.2683 14.631C53.9703 14.0291 53.3905 13.6125 52.7217 13.5517C49.0693 13.2197 45.3846 13.5179 41.8333 14.4329C41.178 14.6017 40.6704 15.1125 40.4765 15.7608L38.6623 21.827C38.4949 22.3867 38.0895 22.8416 37.5634 23.0955C36.2255 23.7412 34.9291 24.495 33.6875 25.3561C32.4453 26.2175 31.2845 27.1679 30.2105 28.1951C29.7883 28.5989 29.2201 28.8192 28.6372 28.7798L22.3233 28.3532C21.6479 28.3075 20.9916 28.604 20.6038 29.1589C18.5021 32.1658 16.9317 35.5141 15.9635 39.053C15.7863 39.7006 15.9734 40.3893 16.4325 40.8791L20.8003 45.539C21.196 45.9612 21.3856 46.5338 21.345 47.1111C21.2404 48.5971 21.2497 50.1008 21.3786 51.6097C21.508 53.1255 21.7557 54.6166 22.1139 56.0716C22.253 56.6366 22.1618 57.2365 21.8398 57.7211L18.3035 63.0437C17.9316 63.6036 17.8616 64.3148 18.1448 64.9244C19.6893 68.2488 21.7946 71.2854 24.3662 73.8976C24.8379 74.3767 25.5287 74.5606 26.1836 74.4084L32.4086 72.9617C32.9754 72.83 33.5693 72.9549 34.0497 73.2832C35.2872 74.129 36.5974 74.8839 37.9721 75.5366C39.3401 76.1861 40.745 76.7219 42.1734 77.1447C42.7283 77.309 43.1981 77.6873 43.4548 78.2059L46.2905 83.9341C46.5883 84.5357 47.1678 84.9523 47.8363 85.0133C51.4883 85.3468 55.1729 85.0501 58.7242 84.1368C59.3799 83.9682 59.8878 83.4573 60.0817 82.8086L61.8966 76.7404C62.064 76.1807 62.4695 75.7257 62.9957 75.4718C64.3346 74.8258 65.632 74.0716 66.8745 73.2098C68.1165 72.3485 69.2773 71.3982 70.3511 70.3711C70.7733 69.9674 71.3415 69.747 71.9244 69.7864L78.2471 70.2137C78.9224 70.2593 79.5788 69.9629 79.9666 69.4081C82.0665 66.4038 83.6361 63.0587 84.6046 59.5233C84.782 58.8756 84.595 58.1866 84.1358 57.6966L79.7615 53.0298C79.3658 52.6076 79.1761 52.0348 79.2168 51.4575C79.3216 49.9706 79.3123 48.466 79.1834 46.9562C79.0539 45.4395 78.8059 43.9475 78.4474 42.4917C78.3082 41.9267 78.3994 41.3267 78.7214 40.842L82.2625 35.5122ZM74.063 32.7891C73.9643 32.6469 74.0404 32.4488 74.2089 32.4097V32.4097C74.4251 32.3594 74.5923 32.6005 74.4695 32.7853V32.7853C74.3737 32.9295 74.1616 32.9313 74.063 32.7891V32.7891ZM76.5355 61.7581C76.606 61.6078 76.8068 61.5757 76.9203 61.6968V61.6968C77.0662 61.8524 76.9453 62.1075 76.7325 62.0931V62.0931C76.5677 62.082 76.4653 61.9076 76.5355 61.7581V61.7581ZM52.7612 78.2446C52.926 78.2312 53.0536 78.3884 53.0062 78.5469V78.5469C52.945 78.7516 52.6634 78.7754 52.5686 78.584V78.584C52.4949 78.435 52.5955 78.2579 52.7612 78.2446V78.2446ZM26.4982 65.7757C26.5971 65.9183 26.5209 66.1168 26.3519 66.1561V66.1561C26.1351 66.2065 25.9675 65.9648 26.0907 65.7794V65.7794C26.1867 65.6349 26.3994 65.6331 26.4982 65.7757V65.7757ZM24.026 36.8091C23.9553 36.9597 23.7538 36.992 23.64 36.8705V36.8705C23.4937 36.7145 23.615 36.4587 23.8284 36.4731V36.4731C23.9936 36.4843 24.0963 36.6591 24.026 36.8091V36.8091ZM47.7981 20.3216C47.6333 20.3349 47.5057 20.1777 47.5531 20.0192V20.0192C47.6143 19.8146 47.8959 19.7907 47.9907 19.9821V19.9821C48.0644 20.1311 47.9638 20.3082 47.7981 20.3216V20.3216ZM57.7756 33.3068C63.4666 36.0088 67.3375 41.5903 67.8735 47.8674C68.4088 54.1374 65.554 60.2577 60.383 63.8439C55.2119 67.43 48.4793 67.9588 42.7946 65.2598C37.1035 62.5579 33.2326 56.9763 32.6967 50.6993C32.1613 44.4292 35.0162 38.3089 40.1872 34.7228C45.3582 31.1366 52.0909 30.6079 57.7756 33.3068Z" fill="#252422"/>
<path d="M62.5899 23.0293L63.4477 21.2226L63.4477 21.2226L62.5899 23.0293ZM21.3786 51.6097L19.3858 51.7799L19.3858 51.7799L21.3786 51.6097ZM37.9721 75.5366L38.8299 73.7299L38.8299 73.7299L37.9721 75.5366ZM79.1834 46.9562L81.1762 46.786L81.1762 46.786L79.1834 46.9562ZM67.8735 47.8674L65.8807 48.0375L65.8807 48.0375L67.8735 47.8674ZM57.7756 33.3068L56.9178 35.1135L57.7756 33.3068ZM42.7946 65.2598L43.6523 63.4531L43.6523 63.4531L42.7946 65.2598ZM32.6967 50.6993L30.7039 50.8694L30.7039 50.8694L32.6967 50.6993ZM78.4474 42.4917L80.3894 42.0134L78.4474 42.4917ZM78.7214 40.842L80.3873 41.9488L78.7214 40.842ZM84.6046 59.5233L86.5335 60.0517L84.6046 59.5233ZM84.1358 57.6966L85.595 56.3289L84.1358 57.6966ZM62.9957 75.4718L63.8648 77.2731L62.9957 75.4718ZM58.7242 84.1368L58.226 82.1998L58.7242 84.1368ZM60.0817 82.8086L58.1656 82.2355L60.0817 82.8086ZM46.2905 83.9341L48.0829 83.0468L46.2905 83.9341ZM47.8363 85.0133L47.6544 87.0051L47.8363 85.0133ZM42.1734 77.1447L41.6057 79.0625L42.1734 77.1447ZM43.4548 78.2059L41.6624 79.0932L43.4548 78.2059ZM32.4086 72.9617L32.8614 74.9098L32.4086 72.9617ZM34.0497 73.2832L35.1782 71.632L34.0497 73.2832ZM24.3662 73.8976L22.941 75.3007L24.3662 73.8976ZM26.1836 74.4084L25.7308 72.4603L26.1836 74.4084ZM18.3035 63.0437L19.9694 64.1505L18.3035 63.0437ZM18.1448 64.9244L16.331 65.7671L18.1448 64.9244ZM21.8398 57.7211L20.174 56.6143L21.8398 57.7211ZM22.3233 28.3532L22.4581 26.3577L22.3233 28.3532ZM20.6038 29.1589L22.2431 30.3046L22.2431 30.3046L20.6038 29.1589ZM30.2105 28.1951L28.8281 26.7498L30.2105 28.1951ZM28.6372 28.7798L28.5024 30.7753L28.6372 28.7798ZM38.6623 21.827L36.7461 21.2539L38.6623 21.827ZM37.5634 23.0955L36.6941 21.2943L37.5634 23.0955ZM41.8333 14.4329L41.3343 12.4961L41.8333 14.4329ZM40.4765 15.7608L42.3927 16.3339L40.4765 15.7608ZM79.2168 51.4575L81.2119 51.5981L79.2168 51.4575ZM58.3855 21.4203L58.953 19.5025L58.3855 21.4203ZM57.1038 20.3591L58.8963 19.4718L57.1038 20.3591ZM78.2471 70.2137L78.3819 68.2182L78.2471 70.2137ZM68.1529 25.6039L68.6056 27.552L68.1529 25.6039ZM20.8003 45.539L22.2595 44.1713L20.8003 45.539ZM21.345 47.1111L23.34 47.2515L21.345 47.1111ZM70.3511 70.3711L71.7335 71.8165L70.3511 70.3711ZM71.9244 69.7864L72.0592 67.791L71.9244 69.7864ZM82.2625 35.5122L83.9284 36.619L82.2625 35.5122ZM54.2683 14.631L56.0607 13.7437L54.2683 14.631ZM15.9635 39.053L17.8926 39.5808L15.9635 39.053ZM16.4325 40.8791L14.9733 42.2468L16.4325 40.8791ZM76.2023 24.6662L74.7772 26.0695L76.2023 24.6662ZM77.6274 23.263C80.3578 26.0359 82.5935 29.2589 84.2344 32.7875L80.6074 34.4742C79.1595 31.3605 77.1865 28.5163 74.7772 26.0695L77.6274 23.263ZM67.7002 23.6558L73.9323 22.2074L74.8378 26.1036L68.6056 27.552L67.7002 23.6558ZM63.4477 21.2226C64.9173 21.9203 66.3177 22.7273 67.6403 23.6312L65.3834 26.9336C64.2311 26.1462 63.0116 25.4435 61.7321 24.836L63.4477 21.2226ZM58.953 19.5025C60.4812 19.9547 61.9842 20.5278 63.4477 21.2226L61.7321 24.836C60.4576 24.2309 59.1487 23.7319 57.818 23.3381L58.953 19.5025ZM56.0607 13.7437L58.8963 19.4718L55.3114 21.2464L52.4759 15.5183L56.0607 13.7437ZM41.3343 12.4961C45.1074 11.524 49.0222 11.2072 52.9028 11.5599L52.5407 15.5435C49.1164 15.2322 45.6617 15.5118 42.3323 16.3696L41.3343 12.4961ZM36.7461 21.2539L38.5604 15.1877L42.3927 16.3339L40.5784 22.4001L36.7461 21.2539ZM32.5477 23.7126C33.876 22.7914 35.2629 21.985 36.6941 21.2943L38.4327 24.8967C37.1882 25.4973 35.9822 26.1985 34.8272 26.9995L32.5477 23.7126ZM28.8281 26.7498C29.977 25.6509 31.2189 24.6342 32.5477 23.7126L34.8272 26.9995C33.6717 27.8009 32.5919 28.685 31.5929 29.6405L28.8281 26.7498ZM22.4581 26.3577L28.7721 26.7844L28.5024 30.7753L22.1885 30.3486L22.4581 26.3577ZM14.0344 38.5252C15.0631 34.7653 16.7316 31.2079 18.9645 28.0131L22.2431 30.3046C20.2727 33.1237 18.8004 36.263 17.8926 39.5808L14.0344 38.5252ZM19.341 46.9067L14.9733 42.2468L17.8917 39.5114L22.2595 44.1713L19.341 46.9067ZM19.3858 51.7799C19.2481 50.1669 19.2381 48.5594 19.3499 46.9707L23.34 47.2515C23.2427 48.6349 23.2514 50.0348 23.3713 51.4396L19.3858 51.7799ZM20.1719 56.5497C19.7891 54.9945 19.5242 53.4005 19.3858 51.7799L23.3713 51.4396C23.4918 52.8505 23.7224 54.2386 24.056 55.5935L20.1719 56.5497ZM16.6377 61.9369L20.174 56.6143L23.5057 58.8279L19.9694 64.1505L16.6377 61.9369ZM22.941 75.3007C20.2087 72.5253 17.972 69.2992 16.331 65.7671L19.9586 64.0818C21.4066 67.1985 23.3805 70.0455 25.7915 72.4945L22.941 75.3007ZM32.8614 74.9098L26.6363 76.3565L25.7308 72.4603L31.9559 71.0136L32.8614 74.9098ZM37.1143 77.3434C35.6445 76.6455 34.2439 75.8384 32.9212 74.9344L35.1782 71.632C36.3306 72.4196 37.5502 73.1224 38.8299 73.7299L37.1143 77.3434ZM41.6057 79.0625C40.0786 78.6104 38.5767 78.0376 37.1143 77.3434L38.8299 73.7299C40.1035 74.3346 41.4114 74.8333 42.7411 75.227L41.6057 79.0625ZM44.4981 84.8214L41.6624 79.0932L45.2472 77.3186L48.0829 83.0468L44.4981 84.8214ZM59.2223 86.0737C55.4492 87.0441 51.5346 87.3593 47.6544 87.0051L48.0181 83.0216C51.442 83.3342 54.8966 83.0561 58.226 82.1998L59.2223 86.0737ZM63.8127 77.3135L61.9979 83.3817L58.1656 82.2355L59.9805 76.1673L63.8127 77.3135ZM68.0143 74.8533C66.6851 75.7751 65.2971 76.5821 63.8648 77.2731L62.1266 73.6705C63.3721 73.0696 64.5789 72.368 65.7348 71.5664L68.0143 74.8533ZM71.7335 71.8165C70.5847 72.9152 69.343 73.9319 68.0143 74.8533L65.7348 71.5664C66.8901 70.7651 67.9698 69.8812 68.9688 68.9258L71.7335 71.8165ZM78.1123 72.2091L71.7895 71.7819L72.0592 67.791L78.3819 68.2182L78.1123 72.2091ZM86.5335 60.0517C85.5045 63.808 83.8369 67.3619 81.6058 70.5539L78.3273 68.2623C80.296 65.4456 81.7676 62.3094 82.6757 58.9948L86.5335 60.0517ZM81.2207 51.6621L85.595 56.3289L82.6766 59.0643L78.3023 54.3975L81.2207 51.6621ZM81.1762 46.786C81.314 48.4 81.3239 50.0085 81.2119 51.5981L77.2218 51.3169C77.3193 49.9327 77.3107 48.532 77.1907 47.1263L81.1762 46.786ZM80.3894 42.0134C80.7726 43.5695 81.0377 45.1644 81.1762 46.786L77.1907 47.1263C77.0701 45.7146 76.8393 44.3256 76.5054 42.97L80.3894 42.0134ZM83.9284 36.619L80.3873 41.9488L77.0556 39.7352L80.5967 34.4054L83.9284 36.619ZM65.8807 48.0375C65.4052 42.469 61.9665 37.5105 56.9178 35.1135L58.6333 31.5001C64.9668 34.507 69.2697 40.7117 69.8662 47.6972L65.8807 48.0375ZM59.2432 62.2004C63.8212 59.0255 66.3556 53.5993 65.8807 48.0375L69.8662 47.6972C70.462 54.6755 67.2867 61.4899 61.5227 65.4873L59.2432 62.2004ZM43.6523 63.4531C48.6949 65.8472 54.6652 65.3753 59.2432 62.2004L61.5227 65.4873C55.7587 69.4848 48.2636 70.0703 41.9368 67.0666L43.6523 63.4531ZM34.6894 50.5291C35.1649 56.0977 38.6036 61.0561 43.6523 63.4531L41.9368 67.0666C35.6034 64.0596 31.3004 57.855 30.7039 50.8694L34.6894 50.5291ZM41.3269 36.3662C36.7489 39.5411 34.2145 44.9674 34.6894 50.5291L30.7039 50.8694C30.1081 43.8911 33.2834 37.0767 39.0474 33.0793L41.3269 36.3662ZM56.9178 35.1135C51.8752 32.7195 45.9049 33.1913 41.3269 36.3662L39.0474 33.0793C44.8115 29.0819 52.3065 28.4963 58.6333 31.5001L56.9178 35.1135ZM49.4692 20.5923C49.8263 19.3983 48.87 18.2285 47.6371 18.3281L47.9592 22.3151C46.3965 22.4413 45.185 20.9571 45.6369 19.4462L49.4692 20.5923ZM45.6369 19.4462C46.2184 17.502 48.8826 17.2757 49.7831 19.0949L46.1983 20.8694C46.9092 22.3056 49.0102 22.1271 49.4692 20.5923L45.6369 19.4462ZM23.9632 34.4777C25.5369 34.584 26.5025 36.239 25.8366 37.6584L22.2153 35.9597C21.6901 37.0793 22.4504 38.3846 23.6936 38.4686L23.9632 34.4777ZM25.0992 35.5028C24.2429 34.5892 22.7429 34.8348 22.2153 35.9597L25.8366 37.6584C25.1676 39.0846 23.2648 39.3947 22.1808 38.2383L25.0992 35.5028ZM22.1808 38.2383C20.7925 36.7571 21.9383 34.3408 23.9632 34.4777L23.6936 38.4686C25.2916 38.5766 26.1949 36.6718 25.0992 35.5028L22.1808 38.2383ZM24.4248 64.6727C25.3054 63.3473 27.2405 63.3365 28.1417 64.636L24.8548 66.9154C25.5582 67.9298 27.068 67.9226 27.7565 66.8862L24.4248 64.6727ZM25.8991 64.208C24.6873 64.4897 24.1513 65.901 24.8548 66.9154L28.1417 64.636C29.0429 65.9355 28.3544 67.744 26.8046 68.1042L25.8991 64.208ZM26.8046 68.1042C24.8247 68.5643 23.2998 66.3659 24.4248 64.6727L27.7565 66.8862C28.6352 65.5637 27.4456 63.8486 25.8991 64.208L26.8046 68.1042ZM50.7762 79.4713C50.0731 78.0509 51.0303 76.3777 52.6003 76.251L52.922 80.2381C54.1607 80.1381 54.9166 78.8192 54.361 77.6967L50.7762 79.4713ZM51.0901 77.9738C50.733 79.1677 51.6891 80.3376 52.922 80.2381L52.6003 76.251C54.1629 76.1249 55.3742 77.6092 54.9223 79.12L51.0901 77.9738ZM54.9223 79.12C54.3409 81.0641 51.6767 81.2904 50.7762 79.4713L54.361 77.6967C53.65 76.2605 51.5491 76.439 51.0901 77.9738L54.9223 79.12ZM76.5976 64.0885C75.0244 63.9822 74.059 62.3277 74.7248 60.9086L78.3461 62.6076C78.8716 61.4875 78.1109 60.1817 76.8673 60.0976L76.5976 64.0885ZM75.4611 63.0645C76.3177 63.9784 77.8182 63.7327 78.3461 62.6076L74.7248 60.9086C75.3937 59.4829 77.2959 59.1729 78.3796 60.329L75.4611 63.0645ZM78.3796 60.329C79.7675 61.8098 78.622 64.2253 76.5976 64.0885L76.8673 60.0976C75.2687 59.9896 74.365 61.8951 75.4611 63.0645L78.3796 60.329ZM76.1353 33.8921C75.2551 35.2171 73.3205 35.228 72.4195 33.9289L75.7064 31.6493C75.0027 30.6346 73.4924 30.6419 72.8036 31.6786L76.1353 33.8921ZM74.6617 34.3577C75.874 34.076 76.4102 32.664 75.7064 31.6493L72.4195 33.9289C71.5185 32.6297 72.2068 30.8217 73.7562 30.4616L74.6617 34.3577ZM73.7562 30.4616C75.7357 30.0015 77.26 32.1994 76.1353 33.8921L72.8036 31.6786C71.9247 33.0015 73.1146 34.7173 74.6617 34.3577L73.7562 30.4616ZM76.5054 42.97C76.2405 41.8943 76.4053 40.7139 77.0556 39.7352L80.3873 41.9488C80.3895 41.9454 80.3873 41.9467 80.3856 41.9572C80.3838 41.9687 80.3832 41.9883 80.3894 42.0134L76.5054 42.97ZM82.6757 58.9948C82.6685 59.0212 82.6705 59.0435 82.6736 59.0553C82.6763 59.0657 82.6793 59.0672 82.6766 59.0643L85.595 56.3289C86.5041 57.2988 86.9045 58.6977 86.5335 60.0517L82.6757 58.9948ZM59.9805 76.1673C60.3185 75.0369 61.1256 74.1535 62.1266 73.6705L63.8648 77.2731C63.8411 77.2846 63.8261 77.2978 63.8183 77.3067C63.8112 77.3149 63.8116 77.3175 63.8127 77.3135L59.9805 76.1673ZM58.226 82.1998C58.1993 82.2067 58.1808 82.2197 58.172 82.2284C58.1643 82.236 58.1645 82.2393 58.1656 82.2355L61.9979 83.3817C61.6139 84.6656 60.5932 85.7212 59.2223 86.0737L58.226 82.1998ZM48.0829 83.0468C48.0846 83.0503 48.0842 83.0471 48.0755 83.0409C48.0655 83.0339 48.0454 83.0241 48.0181 83.0216L47.6544 87.0051C46.2569 86.8774 45.0876 86.0123 44.4981 84.8214L48.0829 83.0468ZM42.7411 75.227C43.7973 75.5397 44.7288 76.2714 45.2472 77.3186L41.6624 79.0932C41.6642 79.0968 41.6642 79.0942 41.656 79.0875C41.6471 79.0802 41.6305 79.0698 41.6057 79.0625L42.7411 75.227ZM31.9559 71.0136C33.1004 70.7477 34.2636 71.007 35.1782 71.632L32.9212 74.9344C32.8998 74.9198 32.8812 74.9135 32.8698 74.9112C32.8594 74.9091 32.8574 74.9107 32.8614 74.9098L31.9559 71.0136ZM25.7915 72.4945C25.7723 72.475 25.7519 72.4656 25.7401 72.4623C25.7298 72.4595 25.727 72.4612 25.7308 72.4603L26.6363 76.3565C25.34 76.6578 23.927 76.3023 22.941 75.3007L25.7915 72.4945ZM19.9694 64.1505C19.9672 64.1538 19.9698 64.1518 19.9708 64.1411C19.9718 64.1289 19.9702 64.1066 19.9586 64.0818L16.331 65.7671C15.739 64.4927 15.9014 63.0452 16.6377 61.9369L19.9694 64.1505ZM24.056 55.5935C24.3207 56.6691 24.1559 57.8493 23.5057 58.8279L20.174 56.6143C20.1717 56.6177 20.1739 56.6164 20.1757 56.6059C20.1775 56.5944 20.1781 56.5748 20.1719 56.5497L24.056 55.5935ZM22.1885 30.3486C22.1845 30.3484 22.1876 30.3497 22.1974 30.3451C22.2086 30.3399 22.2273 30.3272 22.2431 30.3046L18.9645 28.0131C19.7752 26.8532 21.1214 26.2674 22.4581 26.3577L22.1885 30.3486ZM31.5929 29.6405C30.7897 30.4086 29.6795 30.8548 28.5024 30.7753L28.7721 26.7844C28.7679 26.7841 28.7702 26.7854 28.7804 26.7816C28.7914 26.7774 28.8091 26.768 28.8281 26.7498L31.5929 29.6405ZM40.5784 22.4001C40.2404 23.5303 39.4335 24.4137 38.4327 24.8967L36.6941 21.2943C36.7178 21.2828 36.7328 21.2696 36.7406 21.2607C36.7477 21.2525 36.7473 21.2499 36.7461 21.2539L40.5784 22.4001ZM42.3323 16.3696C42.359 16.3627 42.3775 16.3497 42.3863 16.341C42.3939 16.3334 42.3938 16.3301 42.3927 16.3339L38.5604 15.1877C38.9442 13.9044 39.9642 12.8491 41.3343 12.4961L42.3323 16.3696ZM78.3023 54.3975C77.5031 53.5449 77.1443 52.4158 77.2218 51.3169L81.2119 51.5981C81.2101 51.6239 81.214 51.6431 81.2177 51.6541C81.2211 51.6641 81.2235 51.665 81.2207 51.6621L78.3023 54.3975ZM57.818 23.3381C56.7616 23.0255 55.8299 22.2937 55.3114 21.2464L58.8963 19.4718C58.8944 19.4681 58.8945 19.4707 58.9027 19.4774C58.9116 19.4848 58.9282 19.4952 58.953 19.5025L57.818 23.3381ZM78.3819 68.2182C78.3859 68.2185 78.3828 68.2172 78.373 68.2217C78.3618 68.2269 78.3431 68.2397 78.3273 68.2623L81.6058 70.5539C80.7951 71.7138 79.449 72.2995 78.1123 72.2091L78.3819 68.2182ZM68.6056 27.552C67.4612 27.8179 66.298 27.5587 65.3834 26.9336L67.6403 23.6312C67.6617 23.6458 67.6803 23.6521 67.6917 23.6544C67.7021 23.6565 67.7041 23.6549 67.7002 23.6558L68.6056 27.552ZM22.2595 44.1713C23.0586 45.0238 23.4174 46.1527 23.34 47.2515L19.3499 46.9707C19.3517 46.9449 19.3478 46.9257 19.3441 46.9147C19.3406 46.9047 19.3382 46.9038 19.341 46.9067L22.2595 44.1713ZM68.9688 68.9258C69.7719 68.1576 70.8821 67.7114 72.0592 67.791L71.7895 71.7819C71.7937 71.7822 71.7914 71.7809 71.7812 71.7847C71.7702 71.7889 71.7525 71.7983 71.7335 71.8165L68.9688 68.9258ZM84.2344 32.7875C84.8272 34.0621 84.665 35.5103 83.9284 36.619L80.5967 34.4054C80.5989 34.4021 80.5962 34.4041 80.5953 34.4148C80.5942 34.427 80.5959 34.4494 80.6074 34.4742L84.2344 32.7875ZM52.4759 15.5183C52.4741 15.5148 52.4745 15.518 52.4833 15.5242C52.4933 15.5312 52.5134 15.541 52.5407 15.5435L52.9028 11.5599C54.3009 11.687 55.4709 12.5523 56.0607 13.7437L52.4759 15.5183ZM17.8926 39.5808C17.8998 39.5545 17.8977 39.5322 17.8946 39.5204C17.8919 39.51 17.889 39.5085 17.8917 39.5114L14.9733 42.2468C14.0645 41.2773 13.664 39.8789 14.0344 38.5252L17.8926 39.5808ZM49.7831 19.0949C50.4862 20.5151 49.529 22.1882 47.9592 22.3151L47.6371 18.3281C46.3985 18.4281 45.6427 19.747 46.1983 20.8694L49.7831 19.0949ZM74.7772 26.0695C74.7964 26.089 74.8167 26.0983 74.8286 26.1016C74.8389 26.1045 74.8417 26.1027 74.8378 26.1036L73.9323 22.2074C75.2285 21.9062 76.6413 22.2616 77.6274 23.263L74.7772 26.0695Z" fill="#CCC5B9"/>
</svg>
