<svg width="202" height="181" viewBox="0 0 202 181" fill="none" xmlns="http://www.w3.org/2000/svg">
<path fill-rule="evenodd" clip-rule="evenodd" d="M3.7393 97.8378C3.1133 97.5899 2.64956 97.0444 2.53511 96.3809C1.91268 92.7728 1.91379 89.082 2.53845 85.4741C2.65324 84.8111 3.11682 84.2661 3.74243 84.0184L23.6161 76.1496C24.0672 75.971 24.4358 75.6334 24.667 75.2069C24.802 74.9577 24.9406 74.7098 25.0825 74.4633L48.5707 33.6724C48.7232 33.4075 48.879 33.1453 49.0382 32.8858C49.2918 32.4722 49.3997 31.984 49.3286 31.504L46.1913 10.333C46.0926 9.66732 46.3325 8.99321 46.8491 8.56203C49.6644 6.21228 52.8646 4.36237 56.3059 3.09554C56.9391 2.86243 57.645 2.99244 58.1729 3.41272L74.8765 16.7116C75.2582 17.0154 75.7377 17.1668 76.2253 17.1529C76.539 17.144 76.8534 17.1395 77.1685 17.1395L123.993 17.1395C124.31 17.1395 124.626 17.144 124.942 17.1531C125.429 17.167 125.909 17.0157 126.291 16.7117L142.987 3.41881C143.515 2.99828 144.222 2.86839 144.855 3.102C148.299 4.37208 151.501 6.22626 154.317 8.58106C154.833 9.01231 155.072 9.68583 154.974 10.3508L151.838 31.5119C151.767 31.9917 151.875 32.4797 152.128 32.8932C152.286 33.1503 152.44 33.41 152.591 33.6723L176.079 74.4633C176.221 74.7089 176.359 74.9558 176.493 75.204C176.724 75.6304 177.093 75.968 177.544 76.1465L197.399 84.0082C198.025 84.2558 198.488 84.8005 198.603 85.4632C199.23 89.0782 199.231 92.7765 198.607 96.3918C198.492 97.055 198.028 97.6002 197.402 97.848L177.546 105.71C177.095 105.889 176.727 106.226 176.495 106.653C176.36 106.902 176.221 107.151 176.079 107.398L152.591 148.189C152.44 148.451 152.286 148.71 152.128 148.967C151.875 149.381 151.767 149.869 151.838 150.348L154.976 171.522C155.074 172.187 154.835 172.86 154.32 173.291C151.507 175.644 148.31 177.496 144.871 178.767C144.237 179.001 143.53 178.871 143.002 178.45L126.295 165.149C125.913 164.845 125.434 164.694 124.946 164.708C124.629 164.717 124.311 164.721 123.993 164.721L77.1685 164.721C76.8521 164.721 76.5364 164.717 76.2214 164.708C75.7336 164.694 75.254 164.845 74.8723 165.149L58.1583 178.456C57.6301 178.877 56.9239 179.007 56.2904 178.773C52.8541 177.506 49.6584 175.658 46.8467 173.31C46.3302 172.879 46.0904 172.205 46.189 171.54L49.3282 150.356C49.3993 149.876 49.2914 149.388 49.0378 148.974C48.8788 148.715 48.7231 148.453 48.5707 148.189L25.0825 107.398C24.9398 107.15 24.8005 106.9 24.6647 106.65C24.4335 106.223 24.0649 105.886 23.6137 105.707L3.7393 97.8378ZM20.7235 89.2417C20.8027 87.6945 19.2674 86.4757 17.827 87.046L12.7173 89.0692C11.0323 89.7363 11.0323 92.1211 12.7173 92.7883L17.8269 94.8114C19.2672 95.3816 20.8023 94.163 20.7233 92.616C20.6659 91.4919 20.6659 90.3657 20.7235 89.2417ZM59.2153 159.411C57.9154 158.568 56.0921 159.287 55.865 160.819L55.0565 166.275C54.7905 168.07 56.8608 169.263 58.2807 168.133L62.5919 164.701C63.8017 163.737 63.5132 161.804 62.1366 161.099C61.1347 160.586 60.1596 160.023 59.2153 159.411ZM139.028 161.097C137.652 161.802 137.364 163.736 138.573 164.699L142.887 168.133C144.307 169.263 146.377 168.07 146.111 166.275L145.302 160.816C145.075 159.283 143.251 158.564 141.951 159.407C141.007 160.02 140.031 160.584 139.028 161.097ZM180.438 92.6182C180.359 94.1653 181.894 95.3841 183.335 94.8138L188.45 92.7882C190.135 92.1211 190.135 89.7363 188.45 89.0692L183.334 87.0436C181.894 86.4732 180.359 87.6922 180.438 89.2394C180.496 90.3649 180.496 91.4927 180.438 92.6182ZM141.951 22.4534C143.251 23.2964 145.075 22.5772 145.302 21.0447L146.111 15.5822C146.377 13.7869 144.307 12.5939 142.887 13.7244L138.571 17.1609C137.361 18.124 137.649 20.0578 139.026 20.7623C140.029 21.2757 141.005 21.8402 141.951 22.4534ZM62.139 20.7606C63.5158 20.0562 63.8044 18.1222 62.5946 17.159L58.2807 13.7244C56.8608 12.5939 54.7905 13.7869 55.0565 15.5822L55.8655 21.0412C56.0926 22.5735 57.9159 23.2928 59.2157 22.4501C60.1607 21.8375 61.1365 21.2736 62.139 20.7606ZM58.0533 74.969C52.3616 84.8536 52.3616 97.0206 58.0533 106.905L65.4843 119.81C71.1957 129.729 81.7698 135.842 93.2155 135.842L107.93 135.842C119.376 135.842 129.95 129.729 135.661 119.81L143.092 106.905C148.784 97.0206 148.784 84.8536 143.092 74.969L135.661 62.064C129.95 52.1452 119.376 46.0321 107.93 46.0321L93.2154 46.0321C81.7698 46.0321 71.1957 52.1452 65.4843 62.064L58.0533 74.969Z" fill="#252422"/>
<path d="M25.0825 74.4633L26.8157 75.4613L26.8157 75.4613L25.0825 74.4633ZM48.5707 33.6724L46.8375 32.6744L46.8375 32.6744L48.5707 33.6724ZM152.591 33.6723L150.858 34.6703L150.858 34.6703L152.591 33.6723ZM176.079 74.4633L174.346 75.4613L174.346 75.4613L176.079 74.4633ZM176.079 107.398L177.812 108.396L177.812 108.396L176.079 107.398ZM152.591 148.189L154.324 149.187L154.324 149.187L152.591 148.189ZM123.993 164.721L123.993 166.721L123.993 164.721ZM48.5707 148.189L46.8375 149.187L46.8375 149.187L48.5707 148.189ZM25.0825 107.398L23.3493 108.396L23.3493 108.396L25.0825 107.398ZM58.0533 106.905L56.3201 107.903L56.3201 107.903L58.0533 106.905ZM58.0533 74.969L56.3201 73.971L56.3201 73.971L58.0533 74.969ZM65.4843 119.81L67.2175 118.812L67.2175 118.812L65.4843 119.81ZM135.661 119.81L137.395 120.808L137.395 120.808L135.661 119.81ZM143.092 106.905L141.359 105.907L141.359 105.907L143.092 106.905ZM143.092 74.969L141.359 75.967L141.359 75.967L143.092 74.969ZM135.661 62.064L137.395 61.0659L137.395 61.0659L135.661 62.064ZM107.93 46.0321L107.93 44.0321L107.93 46.0321ZM93.2154 46.0321L93.2154 48.0321L93.2154 46.0321ZM65.4843 62.064L67.2175 63.062L67.2175 63.062L65.4843 62.064ZM58.2807 13.7244L59.5264 12.1597L58.2807 13.7244ZM55.0565 15.5822L53.0781 15.8754L55.0565 15.5822ZM138.571 17.1609L139.816 18.7255L138.571 17.1609ZM139.026 20.7623L138.115 22.5427L139.026 20.7623ZM183.335 94.8138L184.071 96.6733L183.335 94.8138ZM180.438 92.6182L178.441 92.516L180.438 92.6182ZM188.45 92.7882L189.187 94.6478L188.45 92.7882ZM145.302 160.816L147.281 160.523L145.302 160.816ZM141.951 159.407L140.863 157.729L141.951 159.407ZM138.573 164.699L139.819 163.134L138.573 164.699ZM139.028 161.097L139.94 162.878L139.028 161.097ZM142.887 168.133L144.133 166.568L142.887 168.133ZM146.111 166.275L148.09 165.982L146.111 166.275ZM55.865 160.819L57.8434 161.113L55.865 160.819ZM59.2153 159.411L58.1273 161.089L59.2153 159.411ZM55.0565 166.275L57.0349 166.568L55.0565 166.275ZM17.8269 94.8114L17.0906 96.6709L17.8269 94.8114ZM17.827 87.046L17.0908 85.1865L17.827 87.046ZM12.7173 89.0692L11.981 87.2096L12.7173 89.0692ZM12.7173 92.7883L11.981 94.6478L12.7173 92.7883ZM24.6647 106.65L26.4232 105.697L24.6647 106.65ZM23.6137 105.707L22.8775 107.566L23.6137 105.707ZM49.3282 150.356L47.3498 150.063L49.3282 150.356ZM49.0378 148.974L47.3328 150.02L49.0378 148.974ZM126.295 165.149L127.541 163.584L126.295 165.149ZM177.546 105.71L176.81 103.85L177.546 105.71ZM176.495 106.653L178.254 107.606L176.495 106.653ZM198.607 96.3918L200.577 96.7325L198.607 96.3918ZM197.402 97.848L198.139 99.7075L197.402 97.848ZM197.399 84.0082L198.136 82.1486L197.399 84.0082ZM198.603 85.4632L196.633 85.8051L198.603 85.4632ZM176.493 75.204L178.251 74.2508L176.493 75.204ZM177.544 76.1465L178.28 74.287L177.544 76.1465ZM151.838 31.5119L153.816 31.8051L151.838 31.5119ZM152.128 32.8932L153.833 31.8482L152.128 32.8932ZM46.8467 173.31L45.565 174.846L46.8467 173.31ZM46.189 171.54L44.2106 171.246L46.189 171.54ZM74.8765 16.7116L73.6308 18.2762L74.8765 16.7116ZM76.2253 17.1529L76.1683 15.1537L76.2253 17.1529ZM58.1583 178.456L56.9126 176.892L58.1583 178.456ZM56.2904 178.773L55.5985 180.65L56.2904 178.773ZM56.3059 3.09554L56.9969 4.9724L56.3059 3.09554ZM58.1729 3.41272L56.9271 4.97738L58.1729 3.41272ZM154.317 8.58106L153.034 10.1153L154.317 8.58106ZM144.871 178.767L144.178 176.891L144.871 178.767ZM143.002 178.45L141.756 180.015L143.002 178.45ZM145.302 21.0447L143.323 20.7515L145.302 21.0447ZM141.951 22.4534L140.863 24.1314L141.951 22.4534ZM23.6161 76.1496L24.3524 78.0091L23.6161 76.1496ZM24.667 75.2069L22.9087 74.2538L24.667 75.2069ZM76.2214 164.708L76.1642 166.707L76.2214 164.708ZM74.8723 165.149L76.118 166.714L74.8723 165.149ZM46.1913 10.333L44.2129 10.6261L46.1913 10.333ZM46.8491 8.56203L48.1306 10.0975L46.8491 8.56203ZM142.987 3.41881L144.233 4.98347L142.987 3.41881ZM144.855 3.102L145.547 1.22554L145.547 1.22554L144.855 3.102ZM154.976 171.522L152.998 171.815L154.976 171.522ZM154.32 173.291L155.603 174.825L154.32 173.291ZM146.111 15.5822L148.089 15.8754L146.111 15.5822ZM142.887 13.7244L144.133 15.289L142.887 13.7244ZM2.53511 96.3809L4.506 96.0409L2.53511 96.3809ZM3.7393 97.8378L3.00303 99.6973L3.7393 97.8378ZM62.5946 17.159L63.8403 15.5943L62.5946 17.159ZM62.139 20.7606L63.05 22.5411L62.139 20.7606ZM49.0382 32.8858L47.3332 31.8403L49.0382 32.8858ZM49.3286 31.504L47.3502 31.7972L49.3286 31.504ZM124.942 17.1531L124.999 15.1539L124.942 17.1531ZM126.291 16.7117L127.537 18.2764L126.291 16.7117ZM151.838 150.348L149.86 150.642L151.838 150.348ZM183.334 87.0436L182.598 88.9031L183.334 87.0436ZM180.438 89.2394L178.441 89.3418L180.438 89.2394ZM2.53845 85.4741L4.50913 85.8153L2.53845 85.4741ZM3.74243 84.0184L3.00616 82.1589L3.74243 84.0184ZM0.567771 85.1329C-0.0959121 88.9662 -0.0970967 92.8874 0.564216 96.7209L4.506 96.0409C3.92245 92.6582 3.92349 89.1978 4.50913 85.8153L0.567771 85.1329ZM22.8799 74.2901L3.00616 82.1589L4.4787 85.878L24.3524 78.0091L22.8799 74.2901ZM23.3493 73.4653C23.1988 73.7267 23.0519 73.9895 22.9087 74.2538L26.4253 76.16C26.5522 75.9259 26.6823 75.6929 26.8157 75.4613L23.3493 73.4653ZM46.8375 32.6744L23.3493 73.4653L26.8157 75.4613L50.3039 34.6704L46.8375 32.6744ZM47.3332 31.8403C47.1644 32.1155 46.9992 32.3935 46.8375 32.6744L50.3039 34.6704C50.4472 34.4215 50.5936 34.1752 50.7431 33.9313L47.3332 31.8403ZM44.2129 10.6261L47.3502 31.7972L51.307 31.2108L48.1697 10.0398L44.2129 10.6261ZM55.615 1.21867C51.9587 2.56465 48.5587 4.53004 45.5675 7.02657L48.1306 10.0975C50.7701 7.89453 53.7705 6.1601 56.9969 4.9724L55.615 1.21867ZM76.1222 15.1469L59.4186 1.84806L56.9271 4.97738L73.6308 18.2762L76.1222 15.1469ZM77.1685 15.1395C76.8344 15.1395 76.501 15.1443 76.1683 15.1537L76.2823 19.1521C76.577 19.1437 76.8724 19.1395 77.1685 19.1395L77.1685 15.1395ZM123.993 15.1395L77.1685 15.1395L77.1685 19.1395L123.993 19.1395L123.993 15.1395ZM124.999 15.1539C124.664 15.1443 124.329 15.1395 123.993 15.1395L123.993 19.1395C124.291 19.1395 124.588 19.1438 124.884 19.1522L124.999 15.1539ZM141.741 1.85415L125.045 15.1471L127.537 18.2764L144.233 4.98347L141.741 1.85415ZM155.6 7.04679C152.608 4.54489 149.206 2.57496 145.547 1.22554L144.163 4.97846C147.392 6.1692 150.394 7.90764 153.034 10.1153L155.6 7.04679ZM153.816 31.8051L156.952 10.644L152.995 10.0577L149.859 31.2187L153.816 31.8051ZM154.324 32.6743C154.164 32.3962 154 32.1208 153.833 31.8482L150.423 33.9383C150.571 34.1798 150.716 34.4239 150.858 34.6703L154.324 32.6743ZM177.812 73.4653L154.324 32.6743L150.858 34.6703L174.346 75.4613L177.812 73.4653ZM178.251 74.2508C178.109 73.9875 177.962 73.7257 177.812 73.4652L174.346 75.4613C174.479 75.6921 174.608 75.9241 174.735 76.1573L178.251 74.2508ZM198.136 82.1486L178.28 74.287L176.808 78.0061L196.663 85.8677L198.136 82.1486ZM200.577 96.7325C201.241 92.8914 201.24 88.9621 200.574 85.1213L196.633 85.8051C197.221 89.1942 197.222 92.6617 196.636 96.0511L200.577 96.7325ZM178.283 107.569L198.139 99.7075L196.666 95.9884L176.81 103.85L178.283 107.569ZM177.812 108.396C177.963 108.134 178.11 107.87 178.254 107.606L174.737 105.7C174.61 105.934 174.48 106.168 174.346 106.4L177.812 108.396ZM154.324 149.187L177.812 108.396L174.346 106.4L150.858 147.191L154.324 149.187ZM153.834 150.012C154.001 149.74 154.164 149.464 154.324 149.187L150.858 147.19C150.716 147.437 150.571 147.681 150.423 147.922L153.834 150.012ZM156.954 171.229L153.817 150.055L149.86 150.642L152.998 171.815L156.954 171.229ZM145.564 180.643C149.217 179.293 152.615 177.325 155.603 174.825L153.036 171.757C150.4 173.962 147.402 175.7 144.178 176.891L145.564 180.643ZM125.049 166.714L141.756 180.015L144.247 176.886L127.541 163.584L125.049 166.714ZM123.993 166.721C124.331 166.721 124.667 166.717 125.003 166.707L124.888 162.709C124.59 162.717 124.292 162.721 123.993 162.721L123.993 166.721ZM77.1685 166.721L123.993 166.721L123.993 162.721L77.1685 162.721L77.1685 166.721ZM76.1642 166.707C76.4982 166.717 76.833 166.721 77.1685 166.721L77.1685 162.721C76.8712 162.721 76.5745 162.717 76.2786 162.709L76.1642 166.707ZM59.404 180.021L76.118 166.714L73.6266 163.585L56.9126 176.892L59.404 180.021ZM45.565 174.846C48.5523 177.339 51.9475 179.303 55.5985 180.65L56.9823 176.897C53.7606 175.709 50.7644 173.976 48.1284 171.775L45.565 174.846ZM47.3498 150.063L44.2106 171.246L48.1674 171.833L51.3066 150.649L47.3498 150.063ZM46.8375 149.187C46.999 149.467 47.1642 149.745 47.3328 150.02L50.7428 147.929C50.5934 147.685 50.4471 147.439 50.3039 147.191L46.8375 149.187ZM23.3493 108.396L46.8375 149.187L50.3039 147.191L26.8157 106.4L23.3493 108.396ZM22.9063 107.603C23.0503 107.868 23.198 108.133 23.3493 108.396L26.8157 106.4C26.6816 106.167 26.5507 105.932 26.4232 105.697L22.9063 107.603ZM3.00303 99.6973L22.8775 107.566L24.35 103.847L4.47557 95.9782L3.00303 99.6973ZM13.4535 90.9287L18.5633 88.9055L17.0908 85.1865L11.981 87.2096L13.4535 90.9287ZM18.5631 92.9518L13.4535 90.9287L11.981 94.6478L17.0906 96.6709L18.5631 92.9518ZM18.7261 89.1394C18.6651 90.3315 18.665 91.5259 18.7259 92.718L22.7207 92.5139C22.6668 91.458 22.6668 90.3998 22.7209 89.3439L18.7261 89.1394ZM57.0349 166.568L57.8434 161.113L53.8866 160.526L53.0781 165.982L57.0349 166.568ZM61.3462 163.136L57.0349 166.568L59.5264 169.698L63.8377 166.265L61.3462 163.136ZM58.1273 161.089C59.1288 161.738 60.1629 162.336 61.2254 162.879L63.0477 159.319C62.1065 158.837 61.1904 158.307 60.3033 157.732L58.1273 161.089ZM144.133 166.568L139.819 163.134L137.328 166.263L141.641 169.698L144.133 166.568ZM143.324 161.109L144.133 166.568L148.09 165.982L147.281 160.523L143.324 161.109ZM139.94 162.878C141.003 162.333 142.038 161.735 143.04 161.085L140.863 157.729C139.975 158.305 139.059 158.835 138.117 159.317L139.94 162.878ZM187.714 90.9287L182.598 92.9542L184.071 96.6733L189.187 94.6478L187.714 90.9287ZM182.598 88.9031L187.714 90.9287L189.187 87.2096L184.071 85.184L182.598 88.9031ZM182.436 92.7204C182.497 91.5267 182.497 90.3307 182.435 89.137L178.441 89.3418C178.495 90.3991 178.495 91.4587 178.441 92.516L182.436 92.7204ZM144.133 15.289L143.323 20.7515L147.28 21.3379L148.089 15.8754L144.133 15.289ZM139.816 18.7255L144.133 15.289L141.641 12.1597L137.325 15.5962L139.816 18.7255ZM143.039 20.7754C142.036 20.1251 141.001 19.5264 139.937 18.9819L138.115 22.5427C139.057 23.025 139.974 23.5553 140.863 24.1314L143.039 20.7754ZM57.0349 15.289L61.3488 18.7236L63.8403 15.5943L59.5264 12.1597L57.0349 15.289ZM57.8439 20.748L57.0349 15.289L53.0781 15.8754L53.8871 21.3343L57.8439 20.748ZM61.228 18.9801C60.1648 19.5241 59.13 20.1222 58.1278 20.7719L60.3037 24.1283C61.1914 23.5528 62.1081 23.023 63.05 22.5411L61.228 18.9801ZM59.7865 105.907C54.4505 96.6404 54.4505 85.2338 59.7865 75.967L56.3201 73.971C50.2726 84.4734 50.2726 97.4008 56.3201 107.903L59.7865 105.907ZM67.2175 118.812L59.7865 105.907L56.3201 107.903L63.7511 120.808L67.2175 118.812ZM93.2155 133.842C82.4852 133.842 72.5719 128.111 67.2175 118.812L63.7511 120.808C69.8194 131.347 81.0545 137.842 93.2155 137.842L93.2155 133.842ZM107.93 133.842L93.2155 133.842L93.2155 137.842L107.93 137.842L107.93 133.842ZM133.928 118.812C128.574 128.111 118.661 133.842 107.93 133.842L107.93 137.842C120.091 137.842 131.326 131.347 137.395 120.808L133.928 118.812ZM141.359 105.907L133.928 118.812L137.395 120.808L144.826 107.903L141.359 105.907ZM141.359 75.967C146.695 85.2338 146.695 96.6404 141.359 105.907L144.826 107.903C150.873 97.4008 150.873 84.4734 144.826 73.971L141.359 75.967ZM133.928 63.062L141.359 75.967L144.826 73.971L137.395 61.0659L133.928 63.062ZM107.93 48.0321C118.661 48.0321 128.574 53.7631 133.928 63.062L137.395 61.0659C131.326 50.5272 120.091 44.0321 107.93 44.0321L107.93 48.0321ZM93.2154 48.0321L107.93 48.0321L107.93 44.0321L93.2154 44.0321L93.2154 48.0321ZM67.2175 63.062C72.5719 53.7631 82.4852 48.0321 93.2154 48.0321L93.2154 44.0321C81.0544 44.0321 69.8195 50.5272 63.7511 61.0659L67.2175 63.062ZM59.7865 75.967L67.2175 63.062L63.7511 61.0659L56.3201 73.971L59.7865 75.967ZM59.5264 12.1597C56.6867 9.89886 52.546 12.2848 53.0781 15.8754L57.0349 15.289L57.0349 15.289L59.5264 12.1597ZM137.325 15.5962C134.849 17.5674 135.594 21.2528 138.115 22.5427L139.937 18.9819C139.876 18.9507 139.823 18.8846 139.811 18.7922C139.805 18.7511 139.812 18.7289 139.813 18.7264C139.813 18.7257 139.813 18.7276 139.811 18.7302C139.809 18.7332 139.809 18.7314 139.816 18.7255L137.325 15.5962ZM182.598 92.9542C182.589 92.9577 182.588 92.9572 182.591 92.9568C182.595 92.9565 182.597 92.9569 182.596 92.9567C182.593 92.9563 182.57 92.9512 182.537 92.9257C182.463 92.8684 182.432 92.789 182.436 92.7204L178.441 92.516C178.296 95.3479 181.123 97.8406 184.071 96.6733L182.598 92.9542ZM189.187 94.6478C192.557 93.3135 192.557 88.5439 189.187 87.2096L187.714 90.9287L187.714 90.9287L189.187 94.6478ZM147.281 160.523C146.816 157.386 143.242 156.186 140.863 157.729L143.04 161.085C143.097 161.048 143.182 161.035 143.268 161.07C143.307 161.086 143.323 161.104 143.325 161.106C143.325 161.106 143.324 161.105 143.323 161.102C143.321 161.098 143.322 161.1 143.324 161.109L147.281 160.523ZM139.819 163.134C139.812 163.128 139.811 163.126 139.813 163.129C139.815 163.132 139.816 163.134 139.816 163.133C139.815 163.131 139.808 163.108 139.813 163.067C139.826 162.975 139.879 162.909 139.94 162.878L138.117 159.317C135.597 160.607 134.852 164.292 137.328 166.263L139.819 163.134ZM141.641 169.698C144.481 171.959 148.622 169.573 148.09 165.982L144.133 166.568L144.133 166.568L141.641 169.698ZM63.8377 166.265C66.3136 164.294 65.5681 160.608 63.0477 159.319L61.2254 162.879C61.2865 162.911 61.3395 162.977 61.352 163.069C61.3575 163.11 61.3505 163.132 61.3496 163.135C61.3493 163.136 61.35 163.134 61.3519 163.131C61.354 163.128 61.3536 163.13 61.3462 163.136L63.8377 166.265ZM57.8434 161.113C57.8448 161.103 57.8461 161.102 57.8446 161.105C57.8433 161.108 57.842 161.11 57.8425 161.109C57.8442 161.107 57.86 161.09 57.8987 161.074C57.9855 161.038 58.0696 161.051 58.1273 161.089L60.3033 157.732C57.924 156.19 54.3514 157.39 53.8866 160.526L57.8434 161.113ZM53.0781 165.982C52.5461 169.573 56.6867 171.959 59.5264 169.698L57.0349 166.568L57.0349 166.568L53.0781 165.982ZM17.0906 96.6709C20.0386 97.8381 22.8654 95.3457 22.7207 92.5139L18.7259 92.718C18.7294 92.7867 18.6986 92.866 18.6243 92.9233C18.5912 92.9488 18.5683 92.9539 18.5656 92.9543C18.5648 92.9544 18.5668 92.9541 18.57 92.9544C18.5737 92.9548 18.572 92.9553 18.5631 92.9518L17.0906 96.6709ZM18.5633 88.9055C18.5722 88.902 18.5739 88.9026 18.5702 88.9029C18.567 88.9033 18.565 88.9029 18.5657 88.903C18.5685 88.9035 18.5913 88.9086 18.6244 88.9341C18.6988 88.9914 18.7296 89.0708 18.7261 89.1394L22.7209 89.3439C22.8658 86.512 20.039 84.0191 17.0908 85.1865L18.5633 88.9055ZM11.981 87.2096C8.61107 88.5439 8.61104 93.3135 11.981 94.6478L13.4535 90.9287L13.4535 90.9287L11.981 87.2096ZM26.4232 105.697C25.9797 104.879 25.2597 104.207 24.35 103.847L22.8775 107.566C22.8701 107.564 22.8874 107.568 22.9063 107.603L26.4232 105.697ZM51.3066 150.649C51.45 149.682 51.2293 148.722 50.7428 147.929L47.3328 150.02C47.3536 150.054 47.3486 150.071 47.3498 150.063L51.3066 150.649ZM127.541 163.584C126.771 162.971 125.824 162.682 124.888 162.709L125.003 166.707C125.043 166.706 125.056 166.719 125.049 166.714L127.541 163.584ZM176.81 103.85C175.9 104.21 175.18 104.882 174.737 105.7L178.254 107.606C178.273 107.571 178.29 107.567 178.283 107.569L176.81 103.85ZM196.636 96.0511C196.64 96.0241 196.652 96.0048 196.66 95.9954C196.667 95.9871 196.67 95.987 196.666 95.9884L198.139 99.7075C199.377 99.2171 200.338 98.119 200.577 96.7325L196.636 96.0511ZM196.663 85.8677C196.667 85.8692 196.663 85.869 196.657 85.8608C196.649 85.8514 196.637 85.8321 196.633 85.8051L200.574 85.1213C200.333 83.7359 199.374 82.6388 198.136 82.1486L196.663 85.8677ZM174.735 76.1573C175.178 76.9752 175.898 77.6461 176.808 78.0061L178.28 74.287C178.287 74.2899 178.27 74.2857 178.251 74.2508L174.735 76.1573ZM149.859 31.2187C149.716 32.1861 149.937 33.1451 150.423 33.9383L153.833 31.8482C153.812 31.8143 153.817 31.7973 153.816 31.8051L149.859 31.2187ZM48.1284 171.775C48.1494 171.793 48.1605 171.812 48.1647 171.824C48.1684 171.834 48.1669 171.837 48.1674 171.833L44.2106 171.246C44.0154 172.564 44.4852 173.944 45.565 174.846L48.1284 171.775ZM73.6308 18.2762C74.4003 18.8889 75.347 19.1788 76.2823 19.1521L76.1683 15.1537C76.1284 15.1549 76.116 15.142 76.1222 15.1469L73.6308 18.2762ZM56.9126 176.892C56.9095 176.894 56.9113 176.891 56.9218 176.889C56.934 176.887 56.9566 176.887 56.9823 176.897L55.5985 180.65C56.9228 181.138 58.3586 180.853 59.404 180.021L56.9126 176.892ZM56.9969 4.9724C56.9711 4.98189 56.9485 4.98167 56.9364 4.97956C56.9258 4.97773 56.924 4.97491 56.9271 4.97738L59.4186 1.84806C58.3737 1.01616 56.9388 0.73134 55.615 1.21867L56.9969 4.9724ZM153.034 10.1153C153.013 10.0978 153.002 10.0782 152.998 10.0667C152.994 10.0567 152.996 10.0537 152.995 10.0577L156.952 10.644C157.147 9.32768 156.678 7.94833 155.6 7.04679L153.034 10.1153ZM144.178 176.891C144.203 176.881 144.226 176.881 144.238 176.883C144.249 176.885 144.251 176.888 144.247 176.886L141.756 180.015C142.802 180.848 144.239 181.132 145.564 180.643L144.178 176.891ZM143.323 20.7515C143.322 20.7609 143.321 20.7622 143.322 20.7588C143.323 20.7558 143.325 20.7542 143.324 20.7549C143.322 20.757 143.307 20.7742 143.268 20.7902C143.181 20.8259 143.097 20.8128 143.039 20.7754L140.863 24.1314C143.242 25.6744 146.815 24.4747 147.28 21.3379L143.323 20.7515ZM24.3524 78.0091C25.2619 77.6491 25.9818 76.978 26.4253 76.16L22.9087 74.2538C22.8897 74.2887 22.8725 74.293 22.8799 74.2901L24.3524 78.0091ZM76.2786 162.709C75.3431 162.682 74.3963 162.972 73.6266 163.585L76.118 166.714C76.1118 166.719 76.1242 166.706 76.1642 166.707L76.2786 162.709ZM53.8871 21.3343C54.3519 24.4708 57.9244 25.6707 60.3037 24.1283L58.1278 20.7719C58.0701 20.8093 57.986 20.8223 57.8992 20.7866C57.8605 20.7707 57.8447 20.7535 57.8429 20.7514C57.8424 20.7507 57.8437 20.7523 57.8451 20.7553C57.8466 20.7587 57.8453 20.7574 57.8439 20.748L53.8871 21.3343ZM48.1697 10.0398C48.1691 10.0359 48.1706 10.0388 48.1669 10.0489C48.1627 10.0604 48.1517 10.0799 48.1306 10.0975L45.5675 7.02657C44.4876 7.92797 44.0176 9.30857 44.2129 10.6261L48.1697 10.0398ZM144.233 4.98347C144.236 4.981 144.234 4.98382 144.224 4.98566C144.211 4.98776 144.189 4.98797 144.163 4.97846L145.547 1.22554C144.223 0.737145 142.787 1.02176 141.741 1.85415L144.233 4.98347ZM152.998 171.815C152.998 171.819 152.997 171.816 153 171.806C153.004 171.794 153.015 171.775 153.036 171.757L155.603 174.825C156.681 173.924 157.149 172.545 156.954 171.229L152.998 171.815ZM148.089 15.8754C148.622 12.2848 144.481 9.89884 141.641 12.1597L144.133 15.289L144.133 15.289L148.089 15.8754ZM0.564216 96.7209C0.80349 98.108 1.76392 99.2067 3.00303 99.6973L4.47557 95.9782C4.47189 95.9768 4.47521 95.9769 4.48206 95.9851C4.48993 95.9946 4.50134 96.0139 4.506 96.0409L0.564216 96.7209ZM61.3488 18.7236C61.3563 18.7295 61.3567 18.7313 61.3545 18.7283C61.3526 18.7257 61.3519 18.7238 61.3522 18.7245C61.3532 18.7271 61.3601 18.7492 61.3546 18.7904C61.3422 18.8827 61.2892 18.9488 61.228 18.9801L63.05 22.5411C65.5707 21.2514 66.3164 17.5657 63.8403 15.5943L61.3488 18.7236ZM50.7431 33.9313C51.2297 33.1379 51.4504 32.1786 51.307 31.2108L47.3502 31.7972C47.349 31.7894 47.354 31.8064 47.3332 31.8403L50.7431 33.9313ZM124.884 19.1522C125.82 19.1791 126.767 18.8892 127.537 18.2764L125.045 15.1471C125.051 15.1421 125.039 15.155 124.999 15.1539L124.884 19.1522ZM150.423 147.922C149.937 148.715 149.717 149.674 149.86 150.642L153.817 150.055C153.818 150.063 153.813 150.046 153.834 150.012L150.423 147.922ZM184.071 85.184C181.122 84.0166 178.296 86.5098 178.441 89.3418L182.435 89.137C182.432 89.0684 182.463 88.989 182.537 88.9317C182.57 88.9061 182.593 88.9011 182.596 88.9006C182.597 88.9005 182.595 88.9008 182.591 88.9005C182.588 88.9001 182.589 88.8996 182.598 88.9031L184.071 85.184ZM4.50913 85.8153C4.50446 85.8423 4.49305 85.8616 4.48519 85.8711C4.47834 85.8793 4.47502 85.8794 4.4787 85.878L3.00616 82.1589C1.76781 82.6492 0.807745 83.7469 0.567771 85.1329L4.50913 85.8153Z" fill="#CCC5B9"/>
</svg>
