<svg width="104" height="97" viewBox="0 0 104 97" fill="none" xmlns="http://www.w3.org/2000/svg">
<path fill-rule="evenodd" clip-rule="evenodd" d="M99.7974 55.1622C100.42 54.9127 100.88 54.3689 100.994 53.7083C101.616 50.1026 101.615 46.4145 100.992 42.809C100.878 42.1486 100.418 41.605 99.7957 41.3557L90.6035 37.6706C90.0682 37.456 89.6548 37.0195 89.4488 36.4808C88.8563 34.9306 88.1426 33.4146 87.3078 31.9466L83.7735 25.732C82.8918 24.1816 81.8952 22.7203 80.7978 21.3564C80.437 20.9079 80.2683 20.3322 80.3517 19.7627L81.8039 9.8405C81.9006 9.17946 81.6638 8.51032 81.1531 8.07953C78.3483 5.71332 75.1556 3.84586 71.7191 2.56094C71.0799 2.32196 70.3654 2.45411 69.8341 2.88236L62.1523 9.07482C61.6926 9.44542 61.0932 9.59044 60.5107 9.49346C58.7352 9.19786 56.9224 9.04558 55.0878 9.04558L48.877 9.04558C47.0416 9.04558 45.228 9.198 43.4517 9.49387C42.8692 9.5909 42.2696 9.44589 41.8099 9.07525L34.1316 2.8856C33.6002 2.45722 32.8853 2.32513 32.2461 2.56438C28.8081 3.85102 25.6144 5.72074 22.8092 8.08962C22.2991 8.52045 22.0625 9.18928 22.1592 9.84999L23.6105 19.766C23.6938 20.3354 23.5252 20.911 23.1645 21.3595C22.0681 22.7225 21.0724 24.1828 20.1913 25.732L16.6571 31.9466C15.8225 33.4141 15.1089 34.9297 14.5165 36.4794C14.3106 37.0181 13.8972 37.4545 13.3619 37.6691L4.17952 41.3502C3.55763 41.5996 3.09747 42.143 2.98322 42.8032C2.35858 46.4125 2.35799 50.1046 2.98144 53.7141C3.09552 54.3745 3.55576 54.9182 4.17786 55.1676L13.361 58.8491C13.8964 59.0637 14.3098 59.5002 14.5157 60.0389C15.1083 61.5893 15.8221 63.1056 16.6571 64.5738L20.1913 70.7884C21.0723 72.3375 22.068 73.7977 23.1643 75.1607C23.525 75.6091 23.6936 76.1847 23.6102 76.7541L22.158 86.6766C22.0613 87.3372 22.2979 88.006 22.808 88.4369C25.6113 90.8044 28.8026 92.6734 32.238 93.9601C32.8773 94.1996 33.5924 94.0676 34.124 93.6391L41.8079 87.4448C42.2678 87.0742 42.8673 86.9292 43.4499 87.0262C45.2267 87.3223 47.0409 87.4748 48.877 87.4748L55.0878 87.4748C56.923 87.4748 58.7364 87.3224 60.5125 87.0266C61.095 86.9296 61.6945 87.0746 62.1543 87.4453L69.8417 93.6423C70.3731 94.0707 71.0879 94.2028 71.7272 93.9636C75.1611 92.6786 78.3515 90.8118 81.1544 88.447C81.665 88.0162 81.9018 87.3471 81.8051 86.6861L80.3519 76.7574C80.2686 76.1879 80.4372 75.6122 80.798 75.1638C81.8953 73.7999 82.8918 72.3387 83.7735 70.7884L87.3078 64.5738C88.143 63.1052 88.8569 61.5884 89.4496 60.0375C89.6555 59.4988 90.069 59.0623 90.6043 58.8476L99.7974 55.1622ZM91.6221 48.2593C91.6221 47.5216 92.3636 46.9951 93.0484 47.2696L93.0958 47.2886C93.9713 47.6396 93.9713 48.8789 93.0958 49.2299L93.0483 49.2489C92.3636 49.5234 91.6221 48.997 91.6221 48.2593V48.2593ZM71.6929 82.9928C72.3396 82.6162 73.18 82.9977 73.2884 83.7382L73.296 83.79C73.4356 84.7442 72.3322 85.3743 71.5814 84.769L71.5401 84.7358C70.9636 84.271 71.0529 83.3654 71.6929 82.9928V82.9928ZM32.2697 82.9914C32.9098 83.3642 32.9991 84.2702 32.4224 84.7351L32.3811 84.7684C31.63 85.3739 30.5262 84.7435 30.6659 83.7889L30.6735 83.7371C30.7819 82.9962 31.6227 82.6146 32.2697 82.9914V82.9914ZM12.3427 48.2593C12.3427 48.9976 11.6006 49.5245 10.9153 49.2497L10.8678 49.2307C9.99161 48.8794 9.99161 47.6391 10.8678 47.2879L10.9153 47.2688C11.6006 46.9941 12.3427 47.521 12.3427 48.2593V48.2593ZM32.2705 13.5285C31.6232 13.9054 30.7821 13.5237 30.6736 12.7826L30.666 12.7307C30.5262 11.7757 31.6305 11.1451 32.3819 11.7509L32.4233 11.7842C33.0002 12.2493 32.9108 13.1556 32.2705 13.5285V13.5285ZM71.6921 13.5272C71.0519 13.1544 70.9625 12.2484 71.5393 11.7835L71.5805 11.7502C72.3317 11.1447 73.4355 11.775 73.2958 12.7296L73.2882 12.7815C73.1798 13.5223 72.3391 13.9039 71.6921 13.5272V13.5272ZM72.4204 36.4666C76.5803 43.7813 76.5803 52.7462 72.4204 60.0609L72.2671 60.3304C68.1197 67.6231 60.3761 72.1275 51.9866 72.1275C43.597 72.1275 35.8535 67.6231 31.7061 60.3304L31.5528 60.0609C27.3929 52.7462 27.3929 43.7813 31.5528 36.4666L31.7061 36.197C35.8535 28.9043 43.5971 24.3999 51.9866 24.3999C60.3761 24.3999 68.1197 28.9043 72.2671 36.197L72.4204 36.4666Z" fill="#EB5E28"/>
<path d="M87.3078 31.9466L89.0463 30.9579L89.0463 30.9579L87.3078 31.9466ZM83.7735 25.732L85.512 24.7433L85.512 24.7433L83.7735 25.732ZM55.0878 9.04558L55.0878 7.04558L55.0878 9.04558ZM48.877 9.04558L48.877 11.0456L48.877 9.04558ZM20.1913 25.732L18.4528 24.7433L18.4528 24.7433L20.1913 25.732ZM16.6571 31.9466L14.9185 30.9579L14.9185 30.9579L16.6571 31.9466ZM16.6571 64.5738L18.3956 63.5851L18.3956 63.5851L16.6571 64.5738ZM20.1913 70.7884L18.4528 71.7771L18.4528 71.7771L20.1913 70.7884ZM48.877 87.4748L48.877 89.4748L48.877 87.4748ZM55.0878 87.4748L55.0878 85.4748L55.0878 87.4748ZM83.7735 70.7884L85.512 71.7771L85.512 71.7771L83.7735 70.7884ZM87.3078 64.5738L89.0463 65.5625L89.0463 65.5625L87.3078 64.5738ZM72.4204 60.0609L74.1589 61.0496L74.1589 61.0496L72.4204 60.0609ZM72.4204 36.4666L74.1589 35.4779L74.1589 35.4779L72.4204 36.4666ZM72.2671 60.3304L70.5285 59.3417L70.5285 59.3417L72.2671 60.3304ZM31.7061 60.3304L33.4446 59.3417L31.7061 60.3304ZM31.5528 60.0609L29.8143 61.0496L29.8143 61.0496L31.5528 60.0609ZM31.5528 36.4666L29.8143 35.4779L29.8143 35.4779L31.5528 36.4666ZM31.7061 36.197L33.4446 37.1857L33.4446 37.1858L31.7061 36.197ZM72.2671 36.197L70.5286 37.1858L70.5285 37.1857L72.2671 36.197ZM71.5805 11.7502L72.8357 13.3073L71.5805 11.7502ZM73.2958 12.7296L71.3169 12.44L73.2958 12.7296ZM32.4233 11.7842L31.1681 13.3412L32.4233 11.7842ZM10.9153 49.2497L11.6596 47.3934L10.9153 49.2497ZM10.8678 47.2879L10.1236 45.4315L10.8678 47.2879ZM30.6735 83.7371L32.6524 84.0267L30.6735 83.7371ZM32.4224 84.7351L31.1672 83.178L32.4224 84.7351ZM32.3811 84.7684L31.1259 83.2113L32.3811 84.7684ZM30.6659 83.7889L32.6448 84.0786L30.6659 83.7889ZM73.2884 83.7382L71.3095 84.0278L73.2884 83.7382ZM73.296 83.79L75.2749 83.5004L73.296 83.79ZM93.0483 49.2489L93.7926 51.1053L93.0483 49.2489ZM93.0484 47.2696L93.7926 45.4132L93.0484 47.2696ZM93.0958 47.2886L92.3516 49.145L93.0958 47.2886ZM93.0958 49.2299L92.3516 47.3735L93.0958 49.2299ZM89.4496 60.0375L91.3178 60.7515L89.4496 60.0375ZM90.6043 58.8476L91.3486 60.704L90.6043 58.8476ZM80.798 75.1638L79.2397 73.9101L80.798 75.1638ZM13.361 58.8491L12.6168 60.7055L13.361 58.8491ZM14.5157 60.0389L12.6475 60.753L14.5157 60.0389ZM2.98144 53.7141L1.01062 54.0545L2.98144 53.7141ZM4.17786 55.1676L3.43364 57.024L4.17786 55.1676ZM4.17952 41.3502L4.92373 43.2066L4.17952 41.3502ZM14.5165 36.4794L16.3847 37.1936L14.5165 36.4794ZM13.3619 37.6691L12.6177 35.8127L13.3619 37.6691ZM23.6105 19.766L21.6315 20.0556L23.6105 19.766ZM23.1645 21.3595L21.6061 20.1059L23.1645 21.3595ZM81.1544 88.447L79.8647 86.9183L81.1544 88.447ZM81.8051 86.6861L79.8261 86.9757L81.8051 86.6861ZM62.1523 9.07482L63.4075 10.6319L62.1523 9.07482ZM60.5107 9.49346L60.8391 7.52061L60.5107 9.49346ZM69.8417 93.6423L71.0969 92.0852L69.8417 93.6423ZM71.7272 93.9636L71.0262 92.0904L71.7272 93.9636ZM71.7191 2.56094L71.0186 4.43427L71.7191 2.56094ZM69.8341 2.88236L68.5789 1.32528L69.8341 2.88236ZM22.8092 8.08962L24.0996 9.61767L22.8092 8.08962ZM22.1592 9.84999L20.1803 10.1396L22.1592 9.84999ZM32.238 93.9601L32.9395 92.0872L32.238 93.9601ZM34.124 93.6391L32.8688 92.082L34.124 93.6391ZM30.6736 12.7826L32.6525 12.4929L30.6736 12.7826ZM90.6035 37.6706L89.8593 39.5269L90.6035 37.6706ZM62.1543 87.4453L63.4095 85.8882L62.1543 87.4453ZM73.2882 12.7815L71.3093 12.4918L73.2882 12.7815ZM81.8039 9.8405L83.7828 10.1301L81.8039 9.8405ZM81.1531 8.07953L82.4427 6.55085L81.1531 8.07953ZM34.1316 2.8856L32.8764 4.44267L34.1316 2.8856ZM32.2461 2.56438L31.545 0.691256L32.2461 2.56438ZM22.158 86.6766L20.1791 86.3869L22.158 86.6766ZM22.808 88.4369L24.0985 86.9089L22.808 88.4369ZM30.666 12.7307L32.6449 12.441L30.666 12.7307ZM32.3819 11.7509L33.6371 10.1938L32.3819 11.7509ZM100.994 53.7083L102.965 54.0484L100.994 53.7083ZM99.7974 55.1622L100.542 57.0186L99.7974 55.1622ZM71.5393 11.7835L72.7945 13.3405L72.7945 13.3405L71.5393 11.7835ZM80.7978 21.3564L79.2395 22.6101L80.7978 21.3564ZM80.3517 19.7627L82.3306 20.0523L80.3517 19.7627ZM43.4517 9.49387L43.1231 7.52105L43.4517 9.49387ZM23.1643 75.1607L21.6058 76.4142L23.1643 75.1607ZM23.6102 76.7541L21.6313 76.4645L23.6102 76.7541ZM10.9153 47.2688L11.6595 49.1252L10.9153 47.2688ZM99.7957 41.3557L99.0515 43.2121L99.7957 41.3557ZM102.963 42.4683C103.625 46.299 103.626 50.2174 102.965 54.0484L99.023 53.3683C99.6062 49.9878 99.6057 46.5299 99.0213 43.1497L102.963 42.4683ZM91.3477 35.8142L100.54 39.4993L99.0515 43.2121L89.8593 39.5269L91.3477 35.8142ZM89.0463 30.9579C89.9316 32.5145 90.6885 34.1224 91.317 35.7667L87.5807 37.1949C87.0241 35.7388 86.3537 34.3146 85.5692 32.9353L89.0463 30.9579ZM85.512 24.7433L89.0463 30.9579L85.5692 32.9353L82.035 26.7207L85.512 24.7433ZM82.3561 20.1026C83.5201 21.5494 84.5771 23.0993 85.512 24.7433L82.035 26.7207C81.2065 25.2639 80.2702 23.8912 79.2395 22.6101L82.3561 20.1026ZM83.7828 10.1301L82.3306 20.0523L78.3728 19.4731L79.825 9.55087L83.7828 10.1301ZM72.4195 0.687605C76.0707 2.05279 79.4627 4.03683 82.4427 6.55085L79.8635 9.60821C77.2339 7.38982 74.2405 5.63893 71.0186 4.43427L72.4195 0.687605ZM60.8972 7.51774L68.5789 1.32528L71.0893 4.43943L63.4075 10.6319L60.8972 7.51774ZM55.0878 7.04558C57.0332 7.04558 58.9558 7.20706 60.8391 7.52061L60.1822 11.4663C58.5146 11.1887 56.8117 11.0456 55.0878 11.0456L55.0878 7.04558ZM48.877 7.04558L55.0878 7.04558L55.0878 11.0456L48.877 11.0456L48.877 7.04558ZM43.1231 7.52105C45.0073 7.20721 46.9307 7.04558 48.877 7.04558L48.877 11.0456C47.1524 11.0456 45.4487 11.1888 43.7803 11.4667L43.1231 7.52105ZM35.3868 1.32852L43.0651 7.51818L40.5547 10.6323L32.8764 4.44267L35.3868 1.32852ZM21.5189 6.56157C24.4993 4.04471 27.8924 2.05827 31.545 0.691256L32.9471 4.4375C29.7239 5.64377 26.7296 7.39678 24.0996 9.61767L21.5189 6.56157ZM21.6315 20.0556L20.1803 10.1396L24.1381 9.56036L25.5894 19.4764L21.6315 20.0556ZM18.4528 24.7433C19.387 23.1005 20.4431 21.5518 21.6061 20.1059L24.7229 22.613C23.6932 23.8932 22.7577 25.265 21.9298 26.7207L18.4528 24.7433ZM14.9185 30.9579L18.4528 24.7433L21.9299 26.7207L18.3956 32.9353L14.9185 30.9579ZM12.6484 35.7652C13.2768 34.1214 14.0335 32.514 14.9185 30.9579L18.3956 32.9353C17.6114 34.3142 16.9411 35.738 16.3847 37.1936L12.6484 35.7652ZM3.4353 39.4939L12.6177 35.8127L14.1061 39.5255L4.92373 43.2066L3.4353 39.4939ZM1.01062 54.0545C0.348229 50.2196 0.348852 46.2969 1.01251 42.4621L4.95392 43.1442C4.36831 46.528 4.36776 49.9897 4.95226 53.3737L1.01062 54.0545ZM12.6168 60.7055L3.43364 57.024L4.92207 53.3113L14.1053 56.9928L12.6168 60.7055ZM14.9185 65.5625C14.0331 64.0057 13.2761 62.3975 12.6475 60.753L16.3839 59.3249C16.9405 60.7812 17.611 62.2056 18.3956 63.5851L14.9185 65.5625ZM18.4528 71.7771L14.9185 65.5625L18.3956 63.5851L21.9299 69.7997L18.4528 71.7771ZM21.6058 76.4142C20.443 74.9684 19.387 73.4198 18.4528 71.7771L21.9299 69.7997C22.7576 71.2553 23.693 72.627 24.7227 73.9072L21.6058 76.4142ZM20.1791 86.3869L21.6313 76.4645L25.5892 77.0437L24.1369 86.9662L20.1791 86.3869ZM31.5364 95.8331C27.8865 94.4659 24.496 92.4803 21.5175 89.9648L24.0985 86.9089C26.7266 89.1285 29.7187 90.8808 32.9395 92.0872L31.5364 95.8331ZM43.0631 89.0019L35.3792 95.1962L32.8688 92.082L40.5528 85.8878L43.0631 89.0019ZM48.877 89.4748C46.9301 89.4748 45.006 89.3131 43.1212 88.999L43.7786 85.0534C45.4475 85.3315 47.1518 85.4748 48.877 85.4748L48.877 89.4748ZM55.0878 89.4748L48.877 89.4748L48.877 85.4748L55.0878 85.4748L55.0878 89.4748ZM60.841 88.9995C58.9571 89.3132 57.0338 89.4748 55.0878 89.4748L55.0878 85.4748C56.8122 85.4748 58.5157 85.3316 60.1839 85.0538L60.841 88.9995ZM68.5865 95.1994L60.8991 89.0023L63.4095 85.8882L71.0969 92.0852L68.5865 95.1994ZM82.4441 89.9756C79.4661 92.4882 76.0766 94.4714 72.4281 95.8367L71.0262 92.0904C74.2457 90.8857 77.2368 89.1355 79.8647 86.9183L82.4441 89.9756ZM82.3308 76.4678L83.784 86.3964L79.8261 86.9757L78.373 77.047L82.3308 76.4678ZM85.512 71.7771C84.5771 73.421 83.5202 74.9708 82.3563 76.4175L79.2397 73.9101C80.2704 72.6291 81.2065 71.2564 82.035 69.7997L85.512 71.7771ZM89.0463 65.5625L85.512 71.7771L82.035 69.7997L85.5692 63.5851L89.0463 65.5625ZM91.3178 60.7515C90.6892 62.3965 89.9319 64.0052 89.0463 65.5625L85.5692 63.5851C86.354 62.2052 87.0247 60.7803 87.5814 59.3236L91.3178 60.7515ZM100.542 57.0186L91.3486 60.704L89.8601 56.9913L99.0532 53.3058L100.542 57.0186ZM92.3516 49.145L92.3041 49.126L93.7926 45.4132L93.84 45.4323L92.3516 49.145ZM92.3041 47.3926L92.3516 47.3735L93.8401 51.0863L93.7926 51.1053L92.3041 47.3926ZM71.317 84.0796L71.3095 84.0278L75.2673 83.4486L75.2749 83.5004L71.317 84.0796ZM72.7953 83.1787L72.8366 83.212L70.3262 86.3261L70.2849 86.2928L72.7953 83.1787ZM31.1259 83.2113L31.1672 83.178L33.6776 86.2922L33.6363 86.3254L31.1259 83.2113ZM32.6524 84.0267L32.6448 84.0786L28.6869 83.4993L28.6945 83.4475L32.6524 84.0267ZM11.612 47.3743L11.6596 47.3934L10.1711 51.1061L10.1236 51.087L11.612 47.3743ZM11.6595 49.1252L11.612 49.1443L10.1236 45.4315L10.1711 45.4124L11.6595 49.1252ZM32.6449 12.441L32.6525 12.4929L28.6947 13.0722L28.6871 13.0203L32.6449 12.441ZM31.1681 13.3412L31.1267 13.3079L33.6371 10.1938L33.6785 10.2271L31.1681 13.3412ZM72.8357 13.3073L72.7945 13.3405L70.2841 10.2264L70.3254 10.1931L72.8357 13.3073ZM71.3093 12.4918L71.3169 12.44L75.2747 13.0193L75.2671 13.0711L71.3093 12.4918ZM70.6819 59.0722C74.4931 52.3705 74.4931 44.157 70.6819 37.4553L74.1589 35.4779C78.6674 43.4056 78.6674 53.1218 74.1589 61.0496L70.6819 59.0722ZM70.5285 59.3417L70.6819 59.0722L74.1589 61.0496L74.0056 61.3191L70.5285 59.3417ZM51.9866 70.1275C59.6569 70.1275 66.7367 66.0093 70.5285 59.3417L74.0056 61.3191C69.5027 69.237 61.0953 74.1275 51.9866 74.1275L51.9866 70.1275ZM33.4446 59.3417C37.2365 66.0093 44.3162 70.1275 51.9866 70.1275L51.9866 74.1275C42.8779 74.1275 34.4705 69.237 29.9676 61.3191L33.4446 59.3417ZM33.2913 59.0721L33.4446 59.3417L29.9676 61.3191L29.8143 61.0496L33.2913 59.0721ZM33.2913 37.4553C29.4801 44.157 29.4801 52.3705 33.2913 59.0721L29.8143 61.0496C25.3058 53.1218 25.3058 43.4056 29.8143 35.4779L33.2913 37.4553ZM33.4446 37.1858L33.2913 37.4553L29.8143 35.4779L29.9676 35.2083L33.4446 37.1858ZM51.9866 26.3999C44.3162 26.3999 37.2365 30.5182 33.4446 37.1857L29.9676 35.2083C34.4705 27.2905 42.8779 22.3999 51.9866 22.3999L51.9866 26.3999ZM70.5285 37.1857C66.7367 30.5182 59.6569 26.3999 51.9866 26.3999L51.9866 22.3999C61.0953 22.3999 69.5027 27.2905 74.0056 35.2083L70.5285 37.1857ZM70.6819 37.4553L70.5286 37.1858L74.0056 35.2083L74.1589 35.4779L70.6819 37.4553ZM70.3254 10.1931C72.4927 8.44598 75.6779 10.2648 75.2747 13.0193L71.3169 12.44C71.1932 13.2853 72.1706 13.8434 72.8357 13.3073L70.3254 10.1931ZM33.6785 10.2271C35.4033 11.6175 35.0651 14.2155 33.2769 15.2568L31.264 11.8002C30.7566 12.0957 30.5971 12.881 31.1681 13.3412L33.6785 10.2271ZM11.6596 47.3934C10.9624 47.1139 10.3427 47.6565 10.3427 48.2593L14.3427 48.2594C14.3426 50.3386 12.2387 51.935 10.1711 51.1061L11.6596 47.3934ZM10.1236 51.087C7.57301 50.0645 7.57302 46.454 10.1236 45.4315L11.612 49.1443C12.4102 48.8243 12.4102 47.6943 11.612 47.3743L10.1236 51.087ZM28.6945 83.4475C29.0189 81.2312 31.4708 80.2117 33.2762 81.2632L31.2632 84.7197C31.7746 85.0175 32.5449 84.7613 32.6524 84.0267L28.6945 83.4475ZM31.1672 83.178C30.5961 83.6384 30.7555 84.4241 31.2632 84.7197L33.2762 81.2632C35.0641 82.3044 35.4022 84.9019 33.6776 86.2922L31.1672 83.178ZM33.6363 86.3254C31.469 88.0726 28.2838 86.2538 28.6869 83.4993L32.6448 84.0786C32.7685 83.2333 31.791 82.6751 31.1259 83.2113L33.6363 86.3254ZM70.2849 86.2928C68.5605 84.9028 68.8987 82.3054 70.6865 81.2644L72.6992 84.7211C73.2072 84.4254 73.3667 83.6393 72.7953 83.1787L70.2849 86.2928ZM71.3095 84.0278C71.417 84.7626 72.1876 85.0191 72.6992 84.7211L70.6865 81.2644C72.4917 80.2133 74.943 81.2327 75.2673 83.4486L71.3095 84.0278ZM75.2749 83.5004C75.678 86.2545 72.4932 88.073 70.3262 86.3261L72.8366 83.212C72.1712 82.6756 71.1933 83.2339 71.317 84.0796L75.2749 83.5004ZM93.7926 51.1053C91.7255 51.934 89.6222 50.3381 89.6221 48.2594L93.6221 48.2592C93.6221 47.6558 93.0017 47.1129 92.3041 47.3926L93.7926 51.1053ZM92.3041 49.126C93.0018 49.4057 93.6221 48.8627 93.6221 48.2592L89.6221 48.2594C89.6221 46.1805 91.7255 44.5845 93.7926 45.4132L92.3041 49.126ZM93.84 45.4323C96.3899 46.4545 96.3899 50.064 93.8401 51.0863L92.3516 47.3735C91.5527 47.6938 91.5527 48.8247 92.3516 49.145L93.84 45.4323ZM87.5814 59.3236C87.9757 58.2917 88.7803 57.4242 89.8601 56.9913L91.3486 60.704C91.3519 60.7027 91.3496 60.7025 91.3432 60.7092C91.3361 60.7166 91.3259 60.7303 91.3178 60.7515L87.5814 59.3236ZM78.373 77.047C78.2049 75.8983 78.5487 74.769 79.2397 73.9101L82.3563 76.4175C82.3422 76.4351 82.3354 76.4508 82.3326 76.4605C82.3301 76.4695 82.3314 76.4713 82.3308 76.4678L78.373 77.047ZM40.5528 85.8878C41.4803 85.14 42.6631 84.8676 43.7786 85.0534L43.1212 88.999C43.0983 88.9952 43.0807 88.9972 43.0706 88.9998C43.0613 89.0021 43.0603 89.0042 43.0631 89.0019L40.5528 85.8878ZM14.1053 56.9928C15.185 57.4256 15.9896 58.2931 16.3839 59.3249L12.6475 60.753C12.6394 60.7318 12.6292 60.718 12.6222 60.7107C12.6157 60.704 12.6135 60.7042 12.6168 60.7055L14.1053 56.9928ZM4.95226 53.3737C4.94762 53.3468 4.9363 53.3275 4.92851 53.3181C4.9217 53.3099 4.9184 53.3098 4.92207 53.3113L3.43364 57.024C2.20223 56.5303 1.24909 55.4351 1.01062 54.0545L4.95226 53.3737ZM4.92373 43.2066C4.92007 43.2081 4.92336 43.2079 4.93016 43.1997C4.93796 43.1903 4.94927 43.1711 4.95392 43.1442L1.01251 42.4621C1.25135 41.0821 2.2043 39.9874 3.4353 39.4939L4.92373 43.2066ZM16.3847 37.1936C15.9903 38.2252 15.1858 39.0926 14.1061 39.5255L12.6177 35.8127C12.6143 35.814 12.6166 35.8142 12.623 35.8075C12.6301 35.8002 12.6403 35.7864 12.6484 35.7652L16.3847 37.1936ZM25.5894 19.4764C25.7575 20.6249 25.4137 21.7541 24.7229 22.613L21.6061 20.1059C21.6202 20.0883 21.627 20.0726 21.6297 20.0629C21.6323 20.054 21.631 20.0521 21.6315 20.0556L25.5894 19.4764ZM79.8647 86.9183C79.8439 86.9359 79.833 86.9553 79.8288 86.9667C79.8252 86.9767 79.8267 86.9796 79.8261 86.9757L83.784 86.3964C83.9755 87.7049 83.5114 89.0751 82.4441 89.9756L79.8647 86.9183ZM63.4075 10.6319C62.4802 11.3795 61.2976 11.652 60.1822 11.4663L60.8391 7.52061C60.862 7.52443 60.8796 7.52244 60.8897 7.51989C60.899 7.51755 60.9 7.51547 60.8972 7.51774L63.4075 10.6319ZM71.0969 92.0852C71.1 92.0877 71.0982 92.0849 71.0875 92.083C71.0752 92.0809 71.0523 92.0807 71.0262 92.0904L72.4281 95.8367C71.0915 96.3369 69.6383 96.0472 68.5865 95.1994L71.0969 92.0852ZM71.0186 4.43427C71.0447 4.44401 71.0676 4.44383 71.0799 4.44168C71.0906 4.43981 71.0924 4.43693 71.0893 4.43943L68.5789 1.32528C69.6304 0.47767 71.0831 0.187919 72.4195 0.687605L71.0186 4.43427ZM24.0996 9.61767C24.1204 9.60014 24.1312 9.58076 24.1354 9.56934C24.139 9.55937 24.1375 9.55646 24.1381 9.56036L20.1803 10.1396C19.9888 8.83174 20.4524 7.46214 21.5189 6.56157L24.0996 9.61767ZM32.9395 92.0872C32.9134 92.0774 32.8905 92.0776 32.8782 92.0798C32.8675 92.0816 32.8657 92.0845 32.8688 92.082L35.3792 95.1962C34.3271 96.0443 32.8734 96.3338 31.5364 95.8331L32.9395 92.0872ZM32.6525 12.4929C32.5451 11.7586 31.7751 11.5026 31.264 11.8002L33.2769 15.2568C31.4713 16.3083 29.0191 15.2887 28.6947 13.0722L32.6525 12.4929ZM89.8593 39.5269C88.7795 39.0941 87.975 38.2266 87.5807 37.1949L91.317 35.7667C91.3251 35.7879 91.3353 35.8016 91.3423 35.809C91.3488 35.8157 91.351 35.8155 91.3477 35.8142L89.8593 39.5269ZM60.1839 85.0538C61.2993 84.8681 62.482 85.1406 63.4095 85.8882L60.8991 89.0023C60.9019 89.0046 60.9009 89.0025 60.8916 89.0002C60.8815 88.9976 60.8639 88.9957 60.841 88.9995L60.1839 85.0538ZM75.2671 13.0711C74.9428 15.2872 72.4912 16.3067 70.6858 15.2556L72.6984 11.7988C72.187 11.501 71.4168 11.7573 71.3093 12.4918L75.2671 13.0711ZM79.825 9.55087C79.8255 9.54697 79.824 9.54989 79.8277 9.55987C79.8318 9.57129 79.8427 9.59068 79.8635 9.60821L82.4427 6.55085C83.5102 7.45135 83.9743 8.8216 83.7828 10.1301L79.825 9.55087ZM32.8764 4.44267C32.8733 4.44017 32.8751 4.44305 32.8858 4.44492C32.8981 4.44706 32.921 4.44724 32.9471 4.4375L31.545 0.691256C32.8817 0.191007 34.335 0.480652 35.3868 1.32852L32.8764 4.44267ZM24.1369 86.9662C24.1364 86.9701 24.1379 86.9672 24.1342 86.9572C24.1301 86.9458 24.1192 86.9264 24.0985 86.9089L21.5175 89.9648C20.4512 89.0643 19.9877 87.6947 20.1791 86.3869L24.1369 86.9662ZM28.6871 13.0203C28.2839 10.2654 31.4695 8.44641 33.6371 10.1938L31.1267 13.3079C31.7916 13.8438 32.7686 13.286 32.6449 12.441L28.6871 13.0203ZM102.965 54.0484C102.726 55.4293 101.773 56.5248 100.542 57.0186L99.0532 53.3058C99.0568 53.3043 99.0535 53.3045 99.0467 53.3127C99.0389 53.3221 99.0276 53.3414 99.023 53.3683L102.965 54.0484ZM72.7945 13.3405C73.3657 12.8801 73.2061 12.0944 72.6984 11.7988L70.6858 15.2556C68.8977 14.2145 68.5594 11.6167 70.2841 10.2264L72.7945 13.3405ZM79.2395 22.6101C78.5485 21.7512 78.2046 20.6218 78.3728 19.4731L82.3306 20.0523C82.3311 20.0488 82.3299 20.0507 82.3324 20.0596C82.3352 20.0693 82.3419 20.085 82.3561 20.1026L79.2395 22.6101ZM43.7803 11.4667C42.6649 11.6525 41.4821 11.38 40.5547 10.6323L43.0651 7.51818C43.0622 7.5159 43.0632 7.51799 43.0725 7.52032C43.0826 7.52288 43.1002 7.52487 43.1231 7.52105L43.7803 11.4667ZM24.7227 73.9072C25.4135 74.766 25.7573 75.8952 25.5892 77.0437L21.6313 76.4645C21.6308 76.468 21.632 76.4662 21.6295 76.4572C21.6268 76.4475 21.62 76.4318 21.6058 76.4142L24.7227 73.9072ZM10.1711 45.4124C12.2388 44.5835 14.3427 46.18 14.3427 48.2594L10.3427 48.2593C10.3427 48.862 10.9624 49.4047 11.6595 49.1252L10.1711 45.4124ZM99.0213 43.1497C99.026 43.1765 99.0373 43.1958 99.0451 43.2052C99.0519 43.2134 99.0552 43.2135 99.0515 43.2121L100.54 39.4993C101.771 39.9929 102.724 41.0879 102.963 42.4683L99.0213 43.1497Z" fill="#CCC5B9"/>
</svg>
