<svg width="361" height="373" viewBox="0 0 361 373" fill="none" xmlns="http://www.w3.org/2000/svg">
<path fill-rule="evenodd" clip-rule="evenodd" d="M243.527 63.6418C244.054 63.2233 244.759 63.0943 245.391 63.3271C248.826 64.5924 252.02 66.4385 254.832 68.7829C255.348 69.214 255.589 69.8882 255.49 70.5539L250.855 101.876C250.789 102.323 250.876 102.779 251.102 103.17L288.338 167.552C288.563 167.942 288.914 168.245 289.334 168.411L318.802 180.056C319.428 180.304 319.893 180.849 320.007 181.512C320.633 185.126 320.632 188.822 320.007 192.436C319.892 193.1 319.427 193.645 318.8 193.892L289.36 205.489C288.94 205.655 288.587 205.958 288.361 206.35L251.229 270.665C251.003 271.057 250.916 271.513 250.983 271.961L255.658 303.24C255.757 303.908 255.517 304.584 254.998 305.015C252.176 307.365 248.968 309.212 245.52 310.475C244.889 310.706 244.185 310.577 243.659 310.159L218.85 290.469C218.497 290.189 218.059 290.036 217.608 290.036L143.252 289.98C142.8 289.98 142.362 290.133 142.008 290.413L117.221 310.071C116.694 310.489 115.991 310.619 115.359 310.387C111.913 309.123 108.707 307.274 105.888 304.924C105.37 304.493 105.13 303.819 105.229 303.153L109.86 271.857C109.926 271.41 109.839 270.954 109.613 270.563L72.3833 206.191C72.1575 205.801 71.8064 205.498 71.387 205.332L41.915 193.686C41.2897 193.438 40.8259 192.894 40.7103 192.232C40.0801 188.62 40.0749 184.925 40.6947 181.312C40.8089 180.647 41.2743 180.1 41.9024 179.852L71.346 168.254C71.7668 168.088 72.119 167.785 72.3451 167.393L109.483 103.068C109.71 102.676 109.796 102.219 109.729 101.772L105.05 70.4605C104.95 69.7933 105.191 69.1174 105.709 68.6857C108.522 66.3434 111.719 64.4996 115.155 63.237C115.787 63.0048 116.491 63.1341 117.018 63.5526L141.851 83.2612C142.205 83.5415 142.642 83.6942 143.093 83.6946L217.474 83.7503C217.925 83.7507 218.364 83.5981 218.718 83.3174L243.527 63.6418ZM241.073 90.6858C242.367 91.6902 244.377 91.0025 244.617 89.3819L246.625 75.8095C246.891 74.0162 244.824 72.8232 243.404 73.9497L232.655 82.4748C231.371 83.4927 231.78 85.5769 233.297 86.1956C236.081 87.3312 238.698 88.8423 241.073 90.6858ZM127.269 86.1319C128.785 85.5136 129.195 83.4298 127.912 82.4116L117.148 73.8687C115.727 72.7406 113.658 73.9362 113.927 75.7309L115.957 89.3144C116.198 90.9326 118.205 91.6182 119.498 90.6156C121.872 88.7749 124.487 87.2659 127.269 86.1319ZM66.5719 182.29C66.7934 180.669 65.1965 179.275 63.6743 179.874L50.8922 184.91C49.2039 185.575 49.2026 187.963 50.8902 188.63L63.676 193.683C65.1996 194.285 66.7996 192.888 66.5763 191.265C66.1665 188.288 66.1651 185.268 66.5719 182.29ZM119.642 283.046C118.348 282.041 116.338 282.729 116.098 284.35L114.088 297.931C113.823 299.724 115.889 300.917 117.31 299.791L128.067 291.259C129.351 290.241 128.941 288.156 127.424 287.538C124.638 286.402 122.019 284.89 119.642 283.046ZM233.437 287.602C231.92 288.22 231.51 290.304 232.794 291.322L243.566 299.872C244.987 301 247.055 299.804 246.787 298.009L244.756 284.417C244.514 282.799 242.508 282.113 241.215 283.116C238.839 284.958 236.222 286.468 233.437 287.602ZM294.14 191.45C293.918 193.071 295.515 194.466 297.038 193.866L309.821 188.831C311.51 188.166 311.511 185.777 309.823 185.11L297.039 180.058C295.516 179.456 293.916 180.852 294.139 182.475C294.547 185.452 294.548 188.473 294.14 191.45ZM225.811 140.077C220.096 130.195 209.549 124.106 198.134 124.097L162.528 124.071C151.087 124.062 140.512 130.162 134.792 140.071L117.06 170.783C111.34 180.691 111.344 192.9 117.072 202.804L134.898 233.625C140.613 243.507 151.159 249.596 162.575 249.605L198.18 249.631C209.621 249.64 220.196 243.539 225.917 233.631L243.648 202.919C249.369 193.011 249.364 180.802 243.636 170.898L225.811 140.077Z" fill="#252422"/>
<path d="M198.134 124.097L198.132 126.097L198.132 126.097L198.134 124.097ZM225.811 140.077L224.079 141.078L224.079 141.078L225.811 140.077ZM162.528 124.071L162.53 122.071L162.53 122.071L162.528 124.071ZM117.072 202.804L115.341 203.805L115.341 203.805L117.072 202.804ZM134.898 233.625L133.167 234.627L133.167 234.627L134.898 233.625ZM162.575 249.605L162.573 251.605L162.573 251.605L162.575 249.605ZM198.18 249.631L198.182 247.631L198.182 247.631L198.18 249.631ZM243.636 170.898L241.905 171.9L241.905 171.9L243.636 170.898ZM297.039 180.058L296.304 181.918L297.039 180.058ZM294.14 191.45L296.122 191.721L294.14 191.45ZM309.821 188.831L310.554 190.692L309.821 188.831ZM309.823 185.11L309.088 186.97L309.823 185.11ZM244.756 284.417L246.734 284.122L244.756 284.417ZM241.215 283.116L239.989 281.535L241.215 283.116ZM232.794 291.322L231.55 292.889L232.794 291.322ZM243.566 299.872L242.322 301.438L243.566 299.872ZM246.787 298.009L244.809 298.305L246.787 298.009ZM128.067 291.259L129.31 292.826L128.067 291.259ZM127.424 287.538L126.669 289.39L127.424 287.538ZM116.098 284.35L114.12 284.057L116.098 284.35ZM119.642 283.046L120.868 281.466L119.642 283.046ZM114.088 297.931L116.067 298.224L114.088 297.931ZM117.31 299.791L118.552 301.358L117.31 299.791ZM63.676 193.683L64.4111 191.823L63.676 193.683ZM66.5763 191.265L64.5949 191.538L66.5763 191.265ZM63.6743 179.874L62.9413 178.014L63.6743 179.874ZM66.5719 182.29L68.5535 182.561L66.5719 182.29ZM50.8922 184.91L51.6252 186.77L50.8922 184.91ZM50.8902 188.63L50.1551 190.49L50.8902 188.63ZM119.498 90.6156L118.272 89.0351L119.498 90.6156ZM127.269 86.1319L126.514 84.2799L127.269 86.1319ZM117.148 73.8687L118.391 72.3021L117.148 73.8687ZM113.927 75.7309L115.905 75.4353L113.927 75.7309ZM241.073 90.6858L242.299 89.1058L241.073 90.6858ZM246.625 75.8095L244.647 75.5167L246.625 75.8095ZM217.474 83.7503L217.475 81.7503L217.474 83.7503ZM218.718 83.3174L217.475 81.7503L218.718 83.3174ZM141.851 83.2612L140.608 84.8278L141.851 83.2612ZM143.093 83.6946L143.095 81.6946L143.093 83.6946ZM115.155 63.237L114.465 61.3597L115.155 63.237ZM117.018 63.5526L115.775 65.1192L117.018 63.5526ZM105.05 70.4605L103.072 70.7561L105.05 70.4605ZM105.709 68.6857L106.989 70.2227L105.709 68.6857ZM109.729 101.772L111.707 101.476L109.729 101.772ZM71.346 168.254L72.079 170.115L71.346 168.254ZM40.6947 181.312L42.6659 181.65L40.6947 181.312ZM41.9024 179.852L42.6354 181.713L42.6354 181.713L41.9024 179.852ZM40.7103 192.232L42.6806 191.888L40.7103 192.232ZM72.3833 206.191L70.652 207.192L72.3833 206.191ZM71.387 205.332L72.1221 203.472L71.387 205.332ZM109.86 271.857L111.838 272.149L109.86 271.857ZM109.613 270.563L111.344 269.561L109.613 270.563ZM105.888 304.924L107.168 303.388L105.888 304.924ZM105.229 303.153L103.25 302.86L105.229 303.153ZM117.221 310.071L115.978 308.504L117.221 310.071ZM115.359 310.387L114.67 312.265L115.359 310.387ZM143.252 289.98L143.251 291.98L143.252 289.98ZM142.008 290.413L143.251 291.98L142.008 290.413ZM218.85 290.469L220.093 288.903L218.85 290.469ZM217.608 290.036L217.607 292.036L217.608 290.036ZM245.52 310.475L246.208 312.353L245.52 310.475ZM243.659 310.159L244.902 308.592L243.659 310.159ZM255.658 303.24L257.636 302.945L255.658 303.24ZM254.998 305.015L256.278 306.552L254.998 305.015ZM251.229 270.665L252.961 271.665L251.229 270.665ZM250.983 271.961L249.005 272.256L250.983 271.961ZM289.36 205.489L288.627 203.628L289.36 205.489ZM288.361 206.35L286.629 205.35L288.361 206.35ZM320.007 192.436L321.977 192.777L320.007 192.436ZM318.8 193.892L318.067 192.032L318.8 193.892ZM318.802 180.056L319.537 178.196L318.802 180.056ZM320.007 181.512L321.978 181.171L320.007 181.512ZM288.338 167.552L290.069 166.551L288.338 167.552ZM289.334 168.411L290.069 166.551L289.334 168.411ZM250.855 101.876L248.877 101.583L250.855 101.876ZM251.102 103.17L249.371 104.171L251.102 103.17ZM245.391 63.3271L246.083 61.4504L245.391 63.3271ZM243.527 63.6418L242.284 62.0748L243.527 63.6418ZM254.832 68.7829L256.112 67.2469L254.832 68.7829ZM255.49 70.5539L253.512 70.2612L255.49 70.5539ZM256.112 67.2469C253.126 64.7561 249.732 62.7947 246.083 61.4504L244.7 65.2038C247.92 66.39 250.915 68.121 253.551 70.3189L256.112 67.2469ZM252.833 102.169L257.468 70.8467L253.512 70.2612L248.877 101.583L252.833 102.169ZM290.069 166.551L252.833 102.169L249.371 104.171L286.606 168.553L290.069 166.551ZM319.537 178.196L290.069 166.551L288.599 170.271L318.067 181.916L319.537 178.196ZM321.977 192.777C322.642 188.938 322.642 185.01 321.978 181.171L318.037 181.853C318.623 185.241 318.623 188.707 318.036 192.094L321.977 192.777ZM290.093 207.35L319.533 195.753L318.067 192.032L288.627 203.628L290.093 207.35ZM252.961 271.665L290.093 207.35L286.629 205.35L249.497 269.665L252.961 271.665ZM257.636 302.945L252.961 271.665L249.005 272.256L253.68 303.536L257.636 302.945ZM246.208 312.353C249.872 311.012 253.279 309.049 256.278 306.552L253.719 303.478C251.073 305.681 248.065 307.413 244.832 308.597L246.208 312.353ZM217.607 292.036L242.415 311.725L244.902 308.592L220.093 288.903L217.607 292.036ZM143.251 291.98L217.607 292.036L217.61 288.036L143.254 287.98L143.251 291.98ZM118.464 311.638L143.251 291.98L140.765 288.846L115.978 308.504L118.464 311.638ZM104.607 306.46C107.603 308.957 111.009 310.921 114.67 312.265L116.048 308.509C112.817 307.324 109.812 305.591 107.168 303.388L104.607 306.46ZM107.881 271.564L103.25 302.86L107.207 303.445L111.838 272.149L107.881 271.564ZM70.652 207.192L107.881 271.564L111.344 269.561L74.1146 205.19L70.652 207.192ZM41.18 195.546L70.652 207.192L72.1221 203.472L42.6501 191.826L41.18 195.546ZM38.7235 180.974C38.065 184.813 38.0705 188.739 38.7401 192.576L42.6806 191.888C42.0897 188.502 42.0848 185.038 42.6659 181.65L38.7235 180.974ZM70.613 166.393L41.1694 177.992L42.6354 181.713L72.079 170.115L70.613 166.393ZM107.751 102.068L70.613 166.393L74.0771 168.393L111.216 104.068L107.751 102.068ZM103.072 70.7561L107.751 102.068L111.707 101.476L107.028 70.1649L103.072 70.7561ZM114.465 61.3597C110.814 62.7012 107.418 64.6601 104.429 67.1488L106.989 70.2227C109.626 68.0267 112.623 66.298 115.845 65.1143L114.465 61.3597ZM143.095 81.6946L118.262 61.9861L115.775 65.1192L140.608 84.8278L143.095 81.6946ZM217.475 81.7503L143.095 81.6946L143.092 85.6946L217.472 85.7503L217.475 81.7503ZM242.284 62.0748L217.475 81.7503L219.961 84.8844L244.769 65.2088L242.284 62.0748ZM244.647 75.5167L242.638 89.0891L246.595 89.6747L248.604 76.1023L244.647 75.5167ZM233.897 84.0418L244.647 75.5167L242.161 72.3827L231.412 80.9078L233.897 84.0418ZM242.299 89.1058C239.78 87.1507 237.005 85.5481 234.052 84.3437L232.542 88.0474C235.157 89.1143 237.615 90.5339 239.847 92.2657L242.299 89.1058ZM115.905 75.4353L126.669 83.9781L129.155 80.845L118.391 72.3021L115.905 75.4353ZM117.935 89.0187L115.905 75.4353L111.949 76.0265L113.979 89.61L117.935 89.0187ZM126.514 84.2799C123.563 85.4826 120.79 87.0829 118.272 89.0351L120.723 92.1961C122.954 90.4669 125.41 89.0493 128.024 87.984L126.514 84.2799ZM51.6252 186.77L64.4073 181.735L62.9413 178.014L50.1592 183.049L51.6252 186.77ZM64.4111 191.823L51.6252 186.77L50.1551 190.49L62.941 195.543L64.4111 191.823ZM64.5903 182.019C64.1588 185.177 64.1604 188.38 64.5949 191.538L68.5576 190.992C68.1727 188.196 68.1713 185.358 68.5535 182.561L64.5903 182.019ZM116.067 298.224L118.077 284.642L114.12 284.057L112.11 297.638L116.067 298.224ZM126.824 289.692L116.067 298.224L118.552 301.358L129.31 292.826L126.824 289.692ZM118.416 284.626C120.936 286.582 123.714 288.186 126.669 289.39L128.179 285.686C125.561 284.619 123.101 283.199 120.868 281.466L118.416 284.626ZM244.809 298.305L234.037 289.756L231.55 292.889L242.322 301.438L244.809 298.305ZM242.778 284.713L244.809 298.305L248.765 297.714L246.734 284.122L242.778 284.713ZM234.192 289.454C237.145 288.251 239.92 286.65 242.44 284.696L239.989 281.535C237.757 283.266 235.298 284.684 232.683 285.749L234.192 289.454ZM309.088 186.97L296.305 192.006L297.771 195.727L310.554 190.692L309.088 186.97ZM296.304 181.918L309.088 186.97L310.558 183.25L297.774 178.198L296.304 181.918ZM296.122 191.721C296.554 188.564 296.554 185.36 296.12 182.203L292.157 182.747C292.541 185.544 292.542 188.382 292.159 191.179L296.122 191.721ZM198.132 126.097C208.834 126.105 218.721 131.814 224.079 141.078L227.542 139.075C221.47 128.576 210.264 122.107 198.135 122.097L198.132 126.097ZM162.527 126.071L198.132 126.097L198.135 122.097L162.53 122.071L162.527 126.071ZM136.524 141.071C141.887 131.782 151.801 126.063 162.527 126.071L162.53 122.071C150.374 122.062 139.138 128.543 133.06 139.071L136.524 141.071ZM118.792 171.783L136.524 141.071L133.06 139.071L115.328 169.783L118.792 171.783ZM118.803 201.802C113.433 192.517 113.429 181.072 118.792 171.783L115.328 169.783C109.25 180.31 109.255 193.282 115.341 203.805L118.803 201.802ZM136.629 232.624L118.803 201.802L115.341 203.805L133.167 234.627L136.629 232.624ZM162.576 247.605C151.874 247.597 141.987 241.888 136.629 232.624L133.167 234.627C139.239 245.126 150.444 251.595 162.573 251.605L162.576 247.605ZM198.182 247.631L162.576 247.605L162.573 251.605L198.179 251.631L198.182 247.631ZM224.185 232.631C218.822 241.92 208.908 247.639 198.182 247.631L198.179 251.631C210.335 251.64 221.571 245.159 227.649 234.631L224.185 232.631ZM241.916 201.919L224.185 232.631L227.649 234.631L245.381 203.919L241.916 201.919ZM241.905 171.9C247.275 181.185 247.279 192.63 241.916 201.919L245.381 203.919C251.459 193.392 251.454 180.42 245.368 169.897L241.905 171.9ZM224.079 141.078L241.905 171.9L245.368 169.897L227.542 139.075L224.079 141.078ZM297.774 178.198C294.645 176.961 291.753 179.808 292.157 182.747L296.12 182.203C296.11 182.132 296.136 182.035 296.227 181.958C296.267 181.924 296.297 181.916 296.301 181.915C296.303 181.915 296.301 181.915 296.296 181.915C296.292 181.914 296.294 181.914 296.304 181.918L297.774 178.198ZM296.305 192.006C296.295 192.01 296.293 192.009 296.298 192.008C296.302 192.008 296.304 192.009 296.302 192.008C296.298 192.007 296.269 192 296.229 191.966C296.138 191.889 296.112 191.792 296.122 191.721L292.159 191.179C291.757 194.116 294.644 196.959 297.771 195.727L296.305 192.006ZM310.554 190.692C313.931 189.361 313.934 184.584 310.558 183.25L309.088 186.97L309.088 186.97L310.554 190.692ZM246.734 284.122C246.237 280.798 242.332 279.719 239.989 281.535L242.44 284.696C242.497 284.652 242.593 284.627 242.705 284.667C242.754 284.684 242.776 284.706 242.779 284.709C242.78 284.71 242.778 284.709 242.777 284.705C242.775 284.701 242.776 284.702 242.778 284.713L246.734 284.122ZM234.037 289.756C234.028 289.749 234.028 289.747 234.031 289.751C234.033 289.754 234.034 289.756 234.033 289.755C234.032 289.75 234.024 289.721 234.033 289.669C234.054 289.552 234.125 289.481 234.192 289.454L232.683 285.749C229.935 286.869 228.914 290.797 231.55 292.889L234.037 289.756ZM242.322 301.438C245.165 303.694 249.301 301.303 248.765 297.714L244.809 298.305L244.809 298.305L242.322 301.438ZM129.31 292.826C131.946 290.735 130.927 286.806 128.179 285.686L126.669 289.39C126.736 289.417 126.807 289.488 126.828 289.605C126.837 289.657 126.829 289.687 126.828 289.691C126.827 289.693 126.828 289.691 126.83 289.687C126.833 289.683 126.833 289.685 126.824 289.692L129.31 292.826ZM118.077 284.642C118.078 284.632 118.08 284.63 118.078 284.635C118.076 284.638 118.074 284.64 118.075 284.639C118.079 284.635 118.1 284.614 118.15 284.596C118.262 284.556 118.359 284.582 118.416 284.626L120.868 281.466C118.524 279.646 114.612 280.728 114.12 284.057L118.077 284.642ZM112.11 297.638C111.579 301.225 115.712 303.611 118.552 301.358L116.067 298.224L116.067 298.224L112.11 297.638ZM62.941 195.543C66.0705 196.78 68.9622 193.932 68.5576 190.992L64.5949 191.538C64.6047 191.609 64.5788 191.706 64.4879 191.783C64.4476 191.817 64.4183 191.825 64.4136 191.826C64.4121 191.826 64.4143 191.826 64.4184 191.826C64.4231 191.826 64.4213 191.827 64.4111 191.823L62.941 195.543ZM64.4073 181.735C64.4176 181.731 64.4193 181.732 64.4147 181.732C64.4106 181.733 64.4084 181.732 64.4098 181.732C64.4145 181.733 64.4436 181.741 64.4837 181.775C64.574 181.852 64.6 181.948 64.5903 182.019L68.5535 182.561C68.9548 179.624 66.0676 176.782 62.9413 178.014L64.4073 181.735ZM50.1592 183.049C46.7826 184.379 46.78 189.157 50.1551 190.49L51.6252 186.77L51.6252 186.77L50.1592 183.049ZM113.979 89.61C114.475 92.9336 118.38 94.0128 120.723 92.1961L118.272 89.0351C118.215 89.0791 118.119 89.1049 118.007 89.0649C117.958 89.0472 117.937 89.0259 117.933 89.0223C117.932 89.0212 117.934 89.0228 117.936 89.0265C117.938 89.0307 117.936 89.0296 117.935 89.0187L113.979 89.61ZM126.669 83.9781C126.677 83.985 126.678 83.9869 126.675 83.9831C126.673 83.9797 126.672 83.9775 126.672 83.9789C126.674 83.9835 126.682 84.0128 126.672 84.0647C126.651 84.1819 126.58 84.2528 126.514 84.2799L128.024 87.984C130.771 86.8638 131.791 82.9365 129.155 80.845L126.669 83.9781ZM118.391 72.3021C115.548 70.046 111.412 72.4372 111.949 76.0265L115.905 75.4353L115.905 75.4353L118.391 72.3021ZM231.412 80.9078C228.776 82.9986 229.794 86.9266 232.542 88.0474L234.052 84.3437C233.986 84.3166 233.915 84.2456 233.894 84.1284C233.884 84.0765 233.892 84.0472 233.894 84.0426C233.894 84.0412 233.894 84.0434 233.891 84.0467C233.889 84.0506 233.889 84.0487 233.897 84.0418L231.412 80.9078ZM242.638 89.0891C242.637 89.1001 242.635 89.1012 242.637 89.0969C242.639 89.0932 242.64 89.0916 242.639 89.0927C242.636 89.0963 242.615 89.1178 242.565 89.1356C242.453 89.1758 242.356 89.1499 242.299 89.1058L239.847 92.2657C242.191 94.0852 246.103 93.0035 246.595 89.6747L242.638 89.0891ZM248.604 76.1023C249.134 72.5156 245.002 70.1297 242.161 72.3827L244.647 75.5167L244.647 75.5167L248.604 76.1023ZM217.472 85.7503C218.376 85.751 219.253 85.4458 219.961 84.8844L217.475 81.7503L217.475 81.7503L217.472 85.7503ZM140.608 84.8278C141.315 85.3884 142.19 85.6939 143.092 85.6946L143.095 81.6946L143.095 81.6946L140.608 84.8278ZM115.845 65.1143C115.819 65.1237 115.796 65.1235 115.784 65.1214C115.774 65.1196 115.772 65.1168 115.775 65.1192L118.262 61.9861C117.218 61.1576 115.786 60.8742 114.465 61.3597L115.845 65.1143ZM107.028 70.1649C107.028 70.1609 107.029 70.1639 107.025 70.174C107.021 70.1855 107.01 70.2052 106.989 70.2227L104.429 67.1488C103.346 68.0511 102.875 69.4355 103.072 70.7561L107.028 70.1649ZM111.216 104.068C111.668 103.284 111.841 102.371 111.707 101.476L107.751 102.068L107.751 102.068L111.216 104.068ZM72.079 170.115C72.9206 169.783 73.6249 169.177 74.0771 168.393L70.613 166.393L70.613 166.393L72.079 170.115ZM42.6659 181.65C42.6613 181.677 42.6498 181.697 42.6419 181.706C42.6351 181.715 42.6317 181.715 42.6354 181.713L41.1694 177.992C39.9261 178.481 38.9622 179.583 38.7235 180.974L42.6659 181.65ZM42.6501 191.826C42.6464 191.824 42.6497 191.824 42.6566 191.832C42.6644 191.842 42.6759 191.861 42.6806 191.888L38.7401 192.576C38.9818 193.961 39.9422 195.056 41.18 195.546L42.6501 191.826ZM74.1146 205.19C73.663 204.409 72.9609 203.804 72.1221 203.472L70.652 207.192L70.652 207.192L74.1146 205.19ZM111.838 272.149C111.97 271.256 111.796 270.343 111.344 269.561L107.881 271.564L107.881 271.564L111.838 272.149ZM107.168 303.388C107.189 303.405 107.2 303.425 107.204 303.436C107.208 303.446 107.206 303.449 107.207 303.445L103.25 302.86C103.055 304.178 103.526 305.559 104.607 306.46L107.168 303.388ZM115.978 308.504C115.975 308.507 115.977 308.504 115.988 308.502C116 308.5 116.022 308.5 116.048 308.509L114.67 312.265C115.99 312.749 117.421 312.466 118.464 311.638L115.978 308.504ZM143.254 287.98C142.35 287.98 141.473 288.285 140.765 288.846L143.251 291.98L143.251 291.98L143.254 287.98ZM220.093 288.903C219.387 288.342 218.511 288.037 217.61 288.036L217.607 292.036L217.607 292.036L220.093 288.903ZM244.832 308.597C244.858 308.588 244.881 308.588 244.893 308.59C244.903 308.592 244.905 308.594 244.902 308.592L242.415 311.725C243.458 312.553 244.887 312.836 246.208 312.353L244.832 308.597ZM253.68 303.536C253.68 303.54 253.679 303.537 253.682 303.527C253.687 303.515 253.698 303.496 253.719 303.478L256.278 306.552C257.362 305.65 257.833 304.266 257.636 302.945L253.68 303.536ZM249.497 269.665C249.045 270.448 248.871 271.362 249.005 272.256L252.961 271.665L252.961 271.665L249.497 269.665ZM288.627 203.628C287.786 203.96 287.081 204.567 286.629 205.35L290.093 207.35L290.093 207.35L288.627 203.628ZM318.036 192.094C318.041 192.067 318.052 192.048 318.06 192.038C318.067 192.03 318.07 192.03 318.067 192.032L319.533 195.753C320.774 195.264 321.737 194.165 321.977 192.777L318.036 192.094ZM318.067 181.916C318.071 181.918 318.067 181.917 318.061 181.909C318.053 181.9 318.041 181.88 318.037 181.853L321.978 181.171C321.738 179.784 320.777 178.686 319.537 178.196L318.067 181.916ZM286.606 168.553C287.058 169.334 287.76 169.939 288.599 170.271L290.069 166.551L290.069 166.551L286.606 168.553ZM248.877 101.583C248.744 102.477 248.919 103.389 249.371 104.171L252.833 102.169L252.833 102.169L248.877 101.583ZM246.083 61.4504C244.761 60.9636 243.329 61.2463 242.284 62.0748L244.769 65.2088C244.773 65.2064 244.771 65.2092 244.76 65.211C244.748 65.2131 244.726 65.2133 244.7 65.2038L246.083 61.4504ZM253.551 70.3189C253.53 70.3013 253.519 70.2818 253.514 70.2703C253.511 70.2602 253.512 70.2573 253.512 70.2612L257.468 70.8467C257.663 69.5288 257.193 68.1481 256.112 67.2469L253.551 70.3189Z" fill="#CCC5B9"/>
</svg>
