<svg width="289" height="433" viewBox="0 0 289 433" fill="none" xmlns="http://www.w3.org/2000/svg">
<path d="M147.5 216.5C147.5 178.323 178.448 147.375 216.625 147.375C254.802 147.375 285.75 178.323 285.75 216.5C285.75 254.677 254.802 285.625 216.625 285.625C178.448 285.625 147.5 254.677 147.5 216.5Z" stroke="#EB5E28" stroke-width="6"/>
<path fill-rule="evenodd" clip-rule="evenodd" d="M0.25 360.75C0.25 320.916 32.5415 288.625 72.375 288.625H144.5V360.75C144.5 400.584 112.209 432.875 72.375 432.875C32.5415 432.875 0.25 400.584 0.25 360.75Z" fill="#EB5E28"/>
<path fill-rule="evenodd" clip-rule="evenodd" d="M144.5 0.125V144.375H216.625C256.459 144.375 288.75 112.084 288.75 72.25C288.75 32.4165 256.459 0.125 216.625 0.125H144.5Z" fill="#CCC5B9"/>
<path fill-rule="evenodd" clip-rule="evenodd" d="M0.25 72.25C0.25 112.084 32.5415 144.375 72.375 144.375H144.5V0.125H72.375C32.5415 0.125 0.25 32.4165 0.25 72.25Z" fill="#EB5E28"/>
<path fill-rule="evenodd" clip-rule="evenodd" d="M0.25 216.5C0.25 256.334 32.5415 288.625 72.375 288.625H144.5V144.375H72.375C32.5415 144.375 0.25 176.666 0.25 216.5Z" fill="#CCC5B9"/>
</svg>
