<svg width="432" height="356" viewBox="0 0 432 356" fill="none" xmlns="http://www.w3.org/2000/svg">
<path fill-rule="evenodd" clip-rule="evenodd" d="M205.527 106.642C206.054 106.223 206.759 106.094 207.391 106.327C210.826 107.592 214.02 109.439 216.832 111.783C217.348 112.214 217.589 112.888 217.49 113.554L212.855 144.876C212.789 145.323 212.876 145.779 213.102 146.17L250.338 210.552C250.563 210.942 250.914 211.245 251.334 211.411L280.802 223.056C281.428 223.304 281.893 223.849 282.007 224.512C282.633 228.126 282.632 231.822 282.007 235.436C281.892 236.1 281.427 236.645 280.8 236.892L251.36 248.489C250.94 248.655 250.587 248.958 250.361 249.35L213.229 313.665C213.003 314.057 212.916 314.513 212.983 314.961L217.658 346.24C217.757 346.908 217.517 347.584 216.998 348.015C214.176 350.365 210.968 352.212 207.52 353.475C206.889 353.706 206.185 353.577 205.659 353.159L180.85 333.469C180.497 333.189 180.059 333.036 179.608 333.036L105.252 332.98C104.8 332.98 104.362 333.133 104.008 333.413L79.2211 353.071C78.6941 353.489 77.9905 353.619 77.359 353.387C73.9128 352.123 70.7075 350.274 67.8876 347.924C67.3704 347.493 67.13 346.819 67.2286 346.153L71.8597 314.857C71.9258 314.41 71.8387 313.954 71.6125 313.563L34.3833 249.191C34.1575 248.801 33.8064 248.498 33.387 248.332L3.91506 236.686C3.28971 236.438 2.82595 235.894 2.71036 235.232C2.08014 231.62 2.07491 227.925 2.69475 224.312C2.80891 223.647 3.2743 223.1 3.90242 222.852L33.346 211.254C33.7668 211.088 34.119 210.785 34.3451 210.393L71.4835 146.068C71.7096 145.676 71.7963 145.219 71.7295 144.772L67.0501 113.46C66.9504 112.793 67.1908 112.117 67.7092 111.686C70.5224 109.343 73.7188 107.5 77.1549 106.237C77.7869 106.005 78.4911 106.134 79.0184 106.553L103.852 126.261C104.205 126.542 104.642 126.694 105.093 126.695L179.474 126.75C179.925 126.751 180.364 126.598 180.718 126.317L205.527 106.642ZM203.073 133.686C204.367 134.69 206.377 134.002 206.617 132.382L208.625 118.809C208.891 117.016 206.824 115.823 205.404 116.95L194.655 125.475C193.371 126.493 193.78 128.577 195.297 129.196C198.081 130.331 200.698 131.842 203.073 133.686ZM89.2687 129.132C90.7854 128.514 91.1951 126.43 89.9121 125.412L79.1479 116.869C77.7265 115.741 75.6584 116.936 75.9266 118.731L77.9566 132.314C78.1984 133.933 80.2048 134.618 81.4978 133.616C83.8718 131.775 86.487 130.266 89.2687 129.132ZM28.5719 225.29C28.7934 223.669 27.1965 222.275 25.6743 222.874L12.8923 227.91C11.2039 228.575 11.2026 230.963 12.8902 231.63L25.676 236.683C27.1996 237.285 28.7996 235.888 28.5763 234.265C28.1665 231.288 28.1651 228.268 28.5719 225.29ZM81.6418 326.046C80.3477 325.041 78.3379 325.729 78.0981 327.35L76.0884 340.931C75.8231 342.724 77.8893 343.917 79.3097 342.791L90.0669 334.259C91.3506 333.241 90.9411 331.156 89.424 330.538C86.6378 329.402 84.0187 327.89 81.6418 326.046ZM195.438 330.602C193.92 331.22 193.51 333.304 194.794 334.322L205.566 342.872C206.987 344 209.055 342.804 208.787 341.009L206.756 327.417C206.514 325.799 204.508 325.113 203.215 326.116C200.839 327.958 198.222 329.468 195.438 330.602ZM256.14 234.45C255.918 236.071 257.515 237.466 259.038 236.866L271.821 231.831C273.51 231.166 273.511 228.777 271.823 228.11L259.039 223.058C257.516 222.456 255.916 223.852 256.139 225.475C256.547 228.452 256.548 231.473 256.14 234.45ZM187.811 183.077C182.096 173.195 171.549 167.106 160.134 167.097L124.528 167.071C113.087 167.062 102.512 173.162 96.7917 183.071L79.0601 213.783C73.3396 223.691 73.3441 235.9 79.0721 245.804L96.8979 276.625C102.613 286.507 113.159 292.596 124.575 292.605L160.18 292.631C171.621 292.64 182.196 286.539 187.917 276.631L205.648 245.919C211.369 236.011 211.364 223.802 205.636 213.898L187.811 183.077Z" stroke="#CCC5B9" stroke-width="4" stroke-linecap="round" stroke-linejoin="round"/>
<path fill-rule="evenodd" clip-rule="evenodd" d="M233.739 121.838C233.113 121.59 232.65 121.044 232.535 120.381C231.913 116.773 231.914 113.082 232.538 109.474C232.653 108.811 233.117 108.266 233.742 108.018L253.616 100.15C254.067 99.971 254.436 99.6334 254.667 99.2069C254.802 98.9577 254.941 98.7098 255.082 98.4633L278.571 57.6724C278.723 57.4075 278.879 57.1453 279.038 56.8858C279.292 56.4721 279.4 55.984 279.329 55.504L276.191 34.3329C276.093 33.6673 276.332 32.9932 276.849 32.562C279.664 30.2123 282.865 28.3624 286.306 27.0955C286.939 26.8624 287.645 26.9924 288.173 27.4127L304.877 40.7116C305.258 41.0154 305.738 41.1668 306.225 41.1529C306.539 41.144 306.853 41.1395 307.168 41.1395H353.993C354.31 41.1395 354.626 41.144 354.942 41.1531C355.429 41.167 355.909 41.0157 356.291 40.7117L372.987 27.4188C373.515 26.9983 374.222 26.8684 374.855 27.102C378.299 28.3721 381.501 30.2263 384.317 32.5811C384.833 33.0123 385.072 33.6858 384.974 34.3508L381.838 55.5119C381.767 55.9917 381.875 56.4797 382.128 56.8932C382.286 57.1503 382.44 57.41 382.591 57.6723L406.079 98.4633C406.221 98.7088 406.358 98.9558 406.493 99.204C406.724 99.6304 407.093 99.968 407.544 100.147L427.399 108.008C428.025 108.256 428.488 108.8 428.603 109.463C429.23 113.078 429.231 116.777 428.607 120.392C428.492 121.055 428.028 121.6 427.402 121.848L407.546 129.71C407.095 129.888 406.727 130.226 406.495 130.653C406.36 130.902 406.221 131.151 406.079 131.398L382.591 172.188C382.44 172.451 382.286 172.71 382.128 172.967C381.875 173.381 381.767 173.869 381.838 174.348L384.976 195.522C385.074 196.187 384.835 196.86 384.32 197.291C381.507 199.644 378.31 201.496 374.871 202.767C374.237 203.001 373.53 202.871 373.002 202.45L356.295 189.149C355.913 188.845 355.434 188.694 354.946 188.708C354.629 188.717 354.311 188.721 353.993 188.721H307.168C306.852 188.721 306.536 188.717 306.221 188.708C305.734 188.694 305.254 188.845 304.872 189.149L288.158 202.456C287.63 202.877 286.924 203.007 286.29 202.773C282.854 201.506 279.658 199.658 276.847 197.31C276.33 196.879 276.09 196.205 276.189 195.54L279.328 174.356C279.399 173.876 279.291 173.388 279.038 172.974C278.879 172.715 278.723 172.453 278.571 172.189L255.082 131.398C254.94 131.15 254.801 130.9 254.665 130.65C254.434 130.223 254.065 129.885 253.614 129.707L233.739 121.838ZM250.723 113.242C250.803 111.694 249.267 110.476 247.827 111.046L242.717 113.069C241.032 113.736 241.032 116.121 242.717 116.788L247.827 118.811C249.267 119.382 250.802 118.163 250.723 116.616C250.666 115.492 250.666 114.366 250.723 113.242ZM289.215 183.41C287.915 182.568 286.092 183.287 285.865 184.819L285.057 190.275C284.79 192.07 286.861 193.263 288.281 192.133L292.592 188.701C293.802 187.737 293.513 185.803 292.137 185.099C291.135 184.586 290.16 184.023 289.215 183.41ZM369.028 185.097C367.652 185.802 367.364 187.736 368.573 188.699L372.887 192.133C374.307 193.263 376.377 192.07 376.111 190.275L375.302 184.816C375.075 183.283 373.251 182.564 371.951 183.407C371.007 184.02 370.031 184.584 369.028 185.097ZM410.438 116.618C410.359 118.165 411.894 119.384 413.335 118.814L418.45 116.788C420.135 116.121 420.135 113.736 418.45 113.069L413.334 111.044C411.894 110.473 410.359 111.692 410.438 113.239C410.496 114.365 410.496 115.493 410.438 116.618ZM371.951 46.4534C373.251 47.2964 375.074 46.5772 375.302 45.0447L376.111 39.5822C376.377 37.7869 374.307 36.5939 372.887 37.7244L368.571 41.1608C367.361 42.124 367.649 44.0578 369.026 44.7623C370.029 45.2757 371.005 45.8402 371.951 46.4534ZM292.139 44.7606C293.516 44.0562 293.804 42.1222 292.595 41.159L288.281 37.7244C286.861 36.5939 284.79 37.7869 285.057 39.5822L285.865 45.0412C286.093 46.5735 287.916 47.2927 289.216 46.4501C290.161 45.8375 291.136 45.2735 292.139 44.7606ZM288.053 98.969C282.362 108.854 282.362 121.021 288.053 130.905L295.484 143.81C301.196 153.729 311.77 159.842 323.215 159.842H337.93C349.376 159.842 359.95 153.729 365.661 143.81L373.092 130.905C378.784 121.021 378.784 108.854 373.092 98.969L365.661 86.0639C359.95 76.1452 349.376 70.0321 337.93 70.0321H323.215C311.77 70.0321 301.196 76.1451 295.484 86.0639L288.053 98.969Z" stroke="#CCC5B9" stroke-width="4" stroke-linecap="round" stroke-linejoin="round"/>
<path fill-rule="evenodd" clip-rule="evenodd" d="M264.797 55.1622C265.42 54.9127 265.88 54.3689 265.994 53.7083C266.616 50.1026 266.615 46.4145 265.992 42.8089C265.878 42.1486 265.418 41.605 264.796 41.3557L255.604 37.6705C255.068 37.4559 254.655 37.0195 254.449 36.4808C253.856 34.9306 253.143 33.4146 252.308 31.9466L248.773 25.7319C247.892 24.1816 246.895 22.7203 245.798 21.3563C245.437 20.9079 245.268 20.3322 245.352 19.7627L246.804 9.84048C246.901 9.17944 246.664 8.5103 246.153 8.07951C243.348 5.7133 240.156 3.84584 236.719 2.56092C236.08 2.32194 235.365 2.45409 234.834 2.88234L227.152 9.07479C226.693 9.4454 226.093 9.59042 225.511 9.49344C223.735 9.19784 221.922 9.04556 220.088 9.04556H213.877C212.042 9.04556 210.228 9.19798 208.452 9.49385C207.869 9.59088 207.27 9.44587 206.81 9.07523L199.132 2.88558C198.6 2.4572 197.885 2.32511 197.246 2.56435C193.808 3.85099 190.614 5.72072 187.809 8.0896C187.299 8.52042 187.062 9.18925 187.159 9.84997L188.61 19.766C188.694 20.3354 188.525 20.911 188.165 21.3594C187.068 22.7225 186.072 24.1827 185.191 25.7319L181.657 31.9466C180.822 33.4141 180.109 34.9297 179.517 36.4794C179.311 37.018 178.897 37.4545 178.362 37.6691L169.18 41.3502C168.558 41.5995 168.097 42.143 167.983 42.8032C167.359 46.4124 167.358 50.1046 167.981 53.7141C168.096 54.3745 168.556 54.9182 169.178 55.1676L178.361 58.8491C178.896 59.0637 179.31 59.5002 179.516 60.0389C180.108 61.5893 180.822 63.1056 181.657 64.5738L185.191 70.7884C186.072 72.3375 187.068 73.7977 188.164 75.1607C188.525 75.6091 188.694 76.1847 188.61 76.7541L187.158 86.6765C187.061 87.3372 187.298 88.006 187.808 88.4368C190.611 90.8044 193.803 92.6734 197.238 93.9601C197.877 94.1996 198.592 94.0676 199.124 93.6391L206.808 87.4448C207.268 87.0741 207.867 86.9291 208.45 87.0262C210.227 87.3223 212.041 87.4748 213.877 87.4748H220.088C221.923 87.4748 223.736 87.3224 225.512 87.0266C226.095 86.9296 226.694 87.0746 227.154 87.4452L234.842 93.6423C235.373 94.0707 236.088 94.2028 236.727 93.9635C240.161 92.6785 243.351 90.8118 246.154 88.4469C246.665 88.0161 246.902 87.347 246.805 86.686L245.352 76.7574C245.269 76.1879 245.437 75.6122 245.798 75.1638C246.895 73.7999 247.892 72.3387 248.773 70.7884L252.308 64.5738C253.143 63.1051 253.857 61.5884 254.45 60.0375C254.656 59.4987 255.069 59.0622 255.604 58.8476L264.797 55.1622ZM256.622 48.2593C256.622 47.5216 257.364 46.9951 258.048 47.2696L258.096 47.2886C258.971 47.6396 258.971 48.8789 258.096 49.2299L258.048 49.2489C257.364 49.5234 256.622 48.997 256.622 48.2593ZM236.693 82.9928C237.34 82.6162 238.18 82.9976 238.288 83.7382L238.296 83.79C238.436 84.7442 237.332 85.3743 236.581 84.769L236.54 84.7357C235.964 84.271 236.053 83.3654 236.693 82.9928ZM197.27 82.9914C197.91 83.3642 197.999 84.2702 197.422 84.7351L197.381 84.7683C196.63 85.3738 195.526 84.7435 195.666 83.7889L195.673 83.7371C195.782 82.9962 196.623 82.6146 197.27 82.9914ZM177.343 48.2593C177.343 48.9975 176.601 49.5244 175.915 49.2497L175.868 49.2306C174.992 48.8794 174.992 47.6391 175.868 47.2879L175.915 47.2688C176.601 46.9941 177.343 47.521 177.343 48.2593ZM197.27 13.5285C196.623 13.9054 195.782 13.5237 195.674 12.7825L195.666 12.7306C195.526 11.7757 196.631 11.1451 197.382 11.7508L197.423 11.7842C198 12.2492 197.911 13.1556 197.27 13.5285ZM236.692 13.5272C236.052 13.1544 235.963 12.2484 236.539 11.7835L236.581 11.7502C237.332 11.1447 238.436 11.775 238.296 12.7296L238.288 12.7814C238.18 13.5223 237.339 13.9039 236.692 13.5272ZM237.42 36.4666C241.58 43.7813 241.58 52.7462 237.42 60.0608L237.267 60.3304C233.12 67.6231 225.376 72.1275 216.987 72.1275C208.597 72.1275 200.853 67.6231 196.706 60.3304L196.553 60.0608C192.393 52.7462 192.393 43.7813 196.553 36.4666L196.706 36.197C200.853 28.9043 208.597 24.3999 216.987 24.3999C225.376 24.3999 233.12 28.9043 237.267 36.197L237.42 36.4666Z" stroke="#CCC5B9" stroke-width="4" stroke-linecap="round" stroke-linejoin="round"/>
<path fill-rule="evenodd" clip-rule="evenodd" d="M372.262 224.512C372.635 223.952 372.704 223.241 372.421 222.631C370.876 219.31 368.772 216.276 366.202 213.666C365.731 213.187 365.04 213.003 364.385 213.156L358.153 214.604C357.586 214.736 356.992 214.611 356.512 214.282C355.274 213.437 353.964 212.682 352.59 212.029C351.221 211.379 349.815 210.843 348.385 210.42C347.831 210.256 347.361 209.878 347.104 209.359L344.268 203.631C343.97 203.029 343.39 202.612 342.722 202.552C339.069 202.22 335.385 202.518 331.833 203.433C331.178 203.602 330.67 204.112 330.476 204.761L328.662 210.827C328.495 211.387 328.089 211.842 327.563 212.095C326.225 212.741 324.929 213.495 323.687 214.356C322.445 215.217 321.284 216.168 320.21 217.195C319.788 217.599 319.22 217.819 318.637 217.78L312.323 217.353C311.648 217.308 310.992 217.604 310.604 218.159C308.502 221.166 306.932 224.514 305.963 228.053C305.786 228.701 305.973 229.389 306.432 229.879L310.8 234.539C311.196 234.961 311.386 235.534 311.345 236.111C311.24 237.597 311.25 239.101 311.379 240.61C311.508 242.125 311.756 243.617 312.114 245.072C312.253 245.637 312.162 246.236 311.84 246.721L308.303 252.044C307.932 252.604 307.862 253.315 308.145 253.924C309.689 257.249 311.795 260.285 314.366 262.898C314.838 263.377 315.529 263.561 316.184 263.408L322.409 261.962C322.975 261.83 323.569 261.955 324.05 262.283C325.287 263.129 326.597 263.884 327.972 264.537C329.34 265.186 330.745 265.722 332.173 266.145C332.728 266.309 333.198 266.687 333.455 267.206L336.29 272.934C336.588 273.536 337.168 273.952 337.836 274.013C341.488 274.347 345.173 274.05 348.724 273.137C349.38 272.968 349.888 272.457 350.082 271.809L351.897 265.74C352.064 265.181 352.469 264.726 352.996 264.472C354.335 263.826 355.632 263.072 356.874 262.21C358.117 261.348 359.277 260.398 360.351 259.371C360.773 258.967 361.341 258.747 361.924 258.786L368.247 259.214C368.922 259.259 369.579 258.963 369.967 258.408C372.066 255.404 373.636 252.059 374.605 248.523C374.782 247.876 374.595 247.187 374.136 246.697L369.761 242.03C369.366 241.608 369.176 241.035 369.217 240.458C369.322 238.971 369.312 237.466 369.183 235.956C369.054 234.439 368.806 232.948 368.447 231.492C368.308 230.927 368.399 230.327 368.721 229.842L372.262 224.512ZM364.063 221.789C363.964 221.647 364.04 221.449 364.209 221.41C364.425 221.359 364.592 221.6 364.469 221.785C364.374 221.929 364.162 221.931 364.063 221.789ZM366.535 250.758C366.606 250.608 366.807 250.576 366.92 250.697C367.066 250.852 366.945 251.107 366.732 251.093C366.568 251.082 366.465 250.908 366.535 250.758ZM342.761 267.245C342.926 267.231 343.054 267.388 343.006 267.547C342.945 267.752 342.663 267.775 342.569 267.584C342.495 267.435 342.595 267.258 342.761 267.245ZM316.498 254.776C316.597 254.918 316.521 255.117 316.352 255.156C316.135 255.206 315.967 254.965 316.091 254.779C316.187 254.635 316.399 254.633 316.498 254.776ZM314.026 225.809C313.955 225.96 313.754 225.992 313.64 225.871C313.494 225.714 313.615 225.459 313.828 225.473C313.994 225.484 314.096 225.659 314.026 225.809ZM337.798 209.322C337.633 209.335 337.506 209.178 337.553 209.019C337.614 208.815 337.896 208.791 337.991 208.982C338.064 209.131 337.964 209.308 337.798 209.322ZM347.776 222.307C353.467 225.009 357.337 230.59 357.873 236.867C358.409 243.137 355.554 249.258 350.383 252.844C345.212 256.43 338.479 256.959 332.795 254.26C327.103 251.558 323.233 245.976 322.697 239.699C322.161 233.429 325.016 227.309 330.187 223.723C335.358 220.137 342.091 219.608 347.776 222.307Z" stroke="#CCC5B9" stroke-width="4" stroke-linecap="round" stroke-linejoin="round"/>
</svg>
