<svg width="425" height="368" viewBox="0 0 425 368" fill="none" xmlns="http://www.w3.org/2000/svg">
<path d="M332.848 114.668L332.126 117.509L334.95 118.296C351.117 122.8 373.103 129.896 390.995 140.671C408.985 151.503 422 165.523 422 183.659C422 201.701 409.021 215.938 391.166 227.024C373.414 238.044 351.654 245.42 335.85 249.938L333.044 250.741L333.769 253.568C337.839 269.431 342.109 291.495 341.033 311.949C339.954 332.467 333.564 350.55 317.172 359.742C300.812 368.915 281.778 365.136 263.235 355.666C244.757 346.23 227.506 331.5 215.333 320.123L213.282 318.206L211.233 320.125C199.054 331.533 181.392 346.236 162.478 355.622C143.488 365.046 123.98 368.763 107.476 359.545C91.1473 350.42 85.0487 332.641 84.2575 312.403C83.4683 292.217 88.0178 270.407 92.1124 254.511L92.8476 251.657L90.0067 250.871C73.724 246.369 51.7505 238.884 33.9108 227.695C15.9768 216.446 3 201.97 3 183.659C3 165.318 15.9588 151.243 33.92 140.41C51.7967 129.627 73.831 122.563 90.257 118.044L93.1037 117.26L92.3659 114.402C88.2847 98.5862 83.6059 76.6092 84.2602 56.2274C84.9166 35.7791 90.8867 17.8096 107.174 8.67646C123.589 -0.528081 143.082 3.38247 162.074 12.9775C180.979 22.5289 198.61 37.3411 210.656 48.5266L212.705 50.4287L214.747 48.5193C226.847 37.2041 244.173 22.2997 262.749 12.6654C281.4 2.99131 300.531 -0.985719 316.867 8.14126L316.868 8.14147C333.253 17.2927 339.466 35.522 340.369 56.2025C341.268 76.8053 336.834 98.9765 332.848 114.668ZM328.878 236.832L329.775 239.584L332.558 238.785C345.075 235.191 364.143 229.465 380.109 220.836C395.836 212.337 409.846 200.315 409.846 183.659C409.846 175.351 406.135 168.196 400.52 162.152C394.931 156.136 387.334 151.078 379.171 146.836C362.846 138.354 343.578 132.797 331.704 129.463L328.915 128.68L328.035 131.439C322.854 147.679 315.93 164.864 307.503 182.45L306.875 183.761L307.515 185.067C316.346 203.084 323.549 220.493 328.878 236.832ZM223.746 307.64L221.674 309.835L223.882 311.893C232.902 320.3 247.422 333.565 263.082 342.854C278.524 352.014 296.274 358.016 311.008 349.754L309.541 347.137L311.008 349.754C325.845 341.434 329.624 322.961 329.425 305.075C329.222 286.916 324.914 267.879 322.02 256.543L321.299 253.721L318.458 254.357C301.004 258.265 281.728 261.134 261.295 262.89L259.914 263.009L259.109 264.137C247.495 280.425 235.613 295.066 223.746 307.64ZM107.439 255.138L104.623 254.535L103.905 257.324C100.883 269.073 96.2706 287.901 95.7874 305.71C95.3109 323.272 98.8232 341.28 113.622 349.545C121.073 353.707 129.566 354.084 138.074 352.323C146.567 350.566 155.299 346.64 163.518 341.882C179.958 332.364 194.9 319.186 202.617 311.955L204.835 309.877L202.728 307.686C190.419 294.89 178.19 280.261 166.503 264.329L165.69 263.22L164.319 263.113C143.832 261.503 124.696 258.836 107.439 255.138ZM97.1958 131.185L96.3238 128.437L93.5439 129.199C81.3899 132.528 62.0593 138.052 45.7376 146.557C37.5751 150.811 29.9968 155.893 24.4276 161.958C18.83 168.054 15.1544 175.271 15.1544 183.659C15.1544 192.057 18.8894 199.383 24.5293 205.63C30.1489 211.855 37.7863 217.158 45.9834 221.626C62.3797 230.563 81.6348 236.485 93.2772 239.713L96.0654 240.486L96.9388 237.727C102.261 220.917 109.285 203.245 117.761 185.373L118.372 184.086L117.76 182.8C109.394 165.192 102.469 147.798 97.1958 131.185ZM202.138 60.9609L204.256 58.7573L202.013 56.6806C193.209 48.5284 178.332 35.2166 162.242 25.8158C154.195 21.1145 145.7 17.304 137.396 15.6578C129.064 14.0059 120.752 14.5052 113.335 18.6642C98.5141 26.9746 94.9826 44.6051 95.5347 62.1074C96.0934 79.8166 100.862 98.7994 104.154 111.569L104.876 114.371L107.702 113.75C125.156 109.92 144.164 107.055 164.04 105.27L165.392 105.149L166.193 104.053C177.778 88.2153 189.894 73.6982 202.138 60.9609ZM274.904 118.421L268.468 117.634L272.034 123.049C280.975 136.626 289.298 150.589 297.054 164.845L299.971 170.206L302.434 164.621C307.846 152.348 312.45 140.361 316.147 128.88L317.158 125.743L313.94 125.031C301.639 122.31 288.553 120.09 274.904 118.421ZM214.875 69.3805L212.708 67.106L210.535 69.3761C201.956 78.3427 193.433 88.2172 185.12 98.8369L181.095 103.979L187.618 103.683C204.262 102.928 220.933 102.932 237.576 103.694L244.061 103.991L240.085 98.8595C231.78 88.1422 223.327 78.2501 214.875 69.3805ZM122.716 164.595L125.195 170.291L128.115 164.808C135.729 150.513 144.031 136.564 152.994 123.022L156.578 117.608L150.132 118.388C136.576 120.029 123.552 122.191 111.327 124.842L108.097 125.542L109.105 128.689C112.832 140.326 117.392 152.363 122.716 164.595ZM150.557 250.19L156.926 250.878L153.378 245.545C144.281 231.874 135.852 217.79 128.134 203.348L125.211 197.879L122.737 203.564C117.3 216.056 112.641 228.351 108.855 240.194L107.843 243.357L111.093 244.043C123.326 246.622 136.553 248.676 150.557 250.19ZM211.037 299.184L213.227 301.473L215.394 299.162C223.791 290.206 232.214 280.163 240.544 269.195L244.409 264.107L238.026 264.383C221.285 265.107 204.503 265.106 187.749 264.468L181.282 264.222L185.273 269.316C193.712 280.088 202.358 290.112 211.037 299.184ZM302.595 202.892L300.087 197.354L297.217 202.713C289.443 217.231 280.989 231.412 271.975 245.255L268.488 250.609L274.835 249.872C288.942 248.233 302.347 246.023 314.782 243.275L318.022 242.558L316.983 239.406C313.142 227.752 308.313 215.518 302.595 202.892ZM251.627 252.017L253.072 251.917L253.892 250.723C268.305 229.751 281.374 207.857 292.753 185.177L293.435 183.818L292.742 182.465C281.235 159.994 268.253 138.2 253.732 117.409L252.916 116.24L251.494 116.135C225.576 114.221 199.5 114.226 173.583 116.124L172.167 116.228L171.35 117.388C156.697 138.187 143.687 160.052 132.43 182.749L131.768 184.084L132.432 185.418C143.745 208.163 156.85 230.071 171.571 250.901L172.399 252.074L173.833 252.164C199.708 253.788 225.745 253.808 251.627 252.017ZM310.726 18.139L309.263 20.758L310.726 18.139C296.037 9.93277 278.154 16.1896 262.638 25.5094C246.882 34.9735 232.275 48.3711 223.378 56.6801L221.157 58.7541L223.259 60.9482C235.299 73.5138 247.312 88.0532 258.922 104.067L259.722 105.17L261.079 105.294C281.011 107.105 300.029 110.02 317.522 113.93L320.369 114.566L321.085 111.739C323.983 100.29 328.458 81.142 328.825 62.9187C329.187 44.9773 325.588 26.4431 310.726 18.139ZM212.5 149.896C231.894 149.896 247.451 165.102 247.451 183.659C247.451 202.218 231.894 217.424 212.5 217.424C193.107 217.424 177.549 202.217 177.549 183.659C177.549 165.102 193.107 149.896 212.5 149.896Z" fill="#EB5E28" stroke="#CCC5B9" stroke-width="6"/>
</svg>
