<svg width="500" height="500" viewBox="0 0 500 500" fill="none" xmlns="http://www.w3.org/2000/svg">
<path d="M72.3584 131.581C110.596 74.3393 175.749 36.6059 249.714 36.5184L249.725 36.5225H249.985C304.304 36.5225 353.878 56.8258 391.556 90.2513C383.194 90.7281 375.016 93.5031 368.561 98.8661C361.079 105.082 356.037 114.672 355.638 127.83C355.233 141.078 359.002 151.704 364.254 161.753C366.721 166.476 369.528 171.091 372.376 175.775C372.548 176.059 372.721 176.343 372.894 176.627C375.927 181.618 378.996 186.713 381.81 192.204C387.424 203.161 392.013 215.685 393.11 231.872C394.207 248.075 391.81 268.035 383.328 293.856L356.514 375.475L281.112 153.363L281.112 153.363C280.577 151.79 280.793 151.048 281.06 150.709C281.359 150.327 282.18 149.847 284.192 149.847H305.918C307.937 149.847 309.47 148.149 309.47 146.202V133.334C309.47 131.451 307.976 129.6 305.853 129.692L305.853 129.692C264.753 131.489 223.896 131.501 183.287 129.692L183.285 129.692C181.151 129.6 179.669 131.461 179.669 133.339V146.207C179.669 148.152 181.202 149.852 183.221 149.852H205.065C207.36 149.852 208.538 150.24 209.256 150.764C209.974 151.288 210.474 152.119 211.022 153.618L242.417 239.478L196.49 378.157L119.855 152.432C119.855 152.431 119.855 152.431 119.854 152.43C119.44 151.193 119.618 150.605 119.767 150.38C119.897 150.185 120.287 149.85 121.414 149.85H146.305C148.324 149.85 149.857 148.152 149.857 146.206V133.338C149.857 131.468 148.371 129.583 146.227 129.696L146.226 129.696C121.148 131.028 95.9724 131.337 72.3584 131.581ZM463.443 249.975C463.443 329.301 420.142 398.528 355.894 435.334L421.608 249.207C431.35 221.644 440.476 184.925 440.636 153.894C455.226 182.773 463.443 215.417 463.443 249.975ZM253.721 270.375L320.018 451.657C298.077 459.285 274.521 463.437 249.985 463.437C228.933 463.437 208.605 460.379 189.398 454.706L253.721 270.375ZM36.5227 249.985C36.5227 219.714 42.8345 190.918 54.2005 164.831L155.322 441.335C84.9261 406.439 36.5227 333.851 36.5227 249.985ZM486.603 249.975C486.603 119.316 380.638 13.3504 249.978 13.3504C119.319 13.3504 13.3535 119.316 13.3535 249.975C13.3535 380.635 119.319 486.6 249.978 486.6C380.638 486.6 486.603 380.635 486.603 249.975ZM249.978 1.48853C387.189 1.48853 498.471 112.77 498.471 249.981C498.471 387.192 387.189 498.473 249.978 498.473C112.767 498.473 1.48584 387.192 1.48584 249.981C1.48584 112.77 112.767 1.48853 249.978 1.48853Z" stroke="#CCC5B9" stroke-width="3"/>
<path d="M72.3584 131.581C110.596 74.3393 175.749 36.6059 249.714 36.5184L249.725 36.5225H249.985C304.304 36.5225 353.878 56.8258 391.556 90.2513C383.194 90.7281 375.016 93.5031 368.561 98.8661C361.079 105.082 356.037 114.672 355.638 127.83C355.233 141.078 359.002 151.704 364.254 161.753C366.721 166.476 369.528 171.091 372.376 175.775C372.548 176.059 372.721 176.343 372.894 176.627C375.927 181.618 378.996 186.713 381.81 192.204C387.424 203.161 392.013 215.685 393.11 231.872C394.207 248.075 391.81 268.035 383.328 293.856L356.514 375.475L281.112 153.363L281.112 153.363C280.577 151.79 280.793 151.048 281.06 150.709C281.359 150.327 282.18 149.847 284.192 149.847H305.918C307.937 149.847 309.47 148.149 309.47 146.202V133.334C309.47 131.451 307.976 129.6 305.853 129.692L305.853 129.692C264.753 131.489 223.896 131.501 183.287 129.692L183.285 129.692C181.151 129.6 179.669 131.461 179.669 133.339V146.207C179.669 148.152 181.202 149.852 183.221 149.852H205.065C207.36 149.852 208.538 150.24 209.256 150.764C209.974 151.288 210.474 152.119 211.022 153.618L242.417 239.478L196.49 378.157L119.855 152.432C119.855 152.431 119.855 152.431 119.854 152.43C119.44 151.193 119.618 150.605 119.767 150.38C119.897 150.185 120.287 149.85 121.414 149.85H146.305C148.324 149.85 149.857 148.152 149.857 146.206V133.338C149.857 131.468 148.371 129.583 146.227 129.696L146.226 129.696C121.148 131.028 95.9724 131.337 72.3584 131.581ZM463.443 249.975C463.443 329.301 420.142 398.528 355.894 435.334L421.608 249.207C431.35 221.644 440.476 184.925 440.636 153.894C455.226 182.773 463.443 215.417 463.443 249.975ZM253.721 270.375L320.018 451.657C298.077 459.285 274.521 463.437 249.985 463.437C228.933 463.437 208.605 460.379 189.398 454.706L253.721 270.375ZM36.5227 249.985C36.5227 219.714 42.8345 190.918 54.2005 164.831L155.322 441.335C84.9261 406.439 36.5227 333.851 36.5227 249.985ZM486.603 249.975C486.603 119.316 380.638 13.3504 249.978 13.3504C119.319 13.3504 13.3535 119.316 13.3535 249.975C13.3535 380.635 119.319 486.6 249.978 486.6C380.638 486.6 486.603 380.635 486.603 249.975ZM249.978 1.48853C387.189 1.48853 498.471 112.77 498.471 249.981C498.471 387.192 387.189 498.473 249.978 498.473C112.767 498.473 1.48584 387.192 1.48584 249.981C1.48584 112.77 112.767 1.48853 249.978 1.48853Z" stroke="url(#paint0_linear)" stroke-width="3"/>
<defs>
<linearGradient id="paint0_linear" x1="249.978" y1="-0.0114746" x2="249.978" y2="499.973" gradientUnits="userSpaceOnUse">
<stop stop-color="#EB5E28"/>
<stop offset="1" stop-color="#CCC5B9"/>
</linearGradient>
</defs>
</svg>
