<svg width="28" height="27" viewBox="0 0 28 27" fill="none" xmlns="http://www.w3.org/2000/svg">
<path d="M9.36532 21.7404C9.36532 21.852 9.23548 21.9413 9.07177 21.9413C8.88548 21.9581 8.75565 21.8688 8.75565 21.7404C8.75565 21.6287 8.88548 21.5394 9.04919 21.5394C9.21855 21.5226 9.36532 21.6119 9.36532 21.7404ZM7.60968 21.4891C7.57016 21.6008 7.68306 21.7292 7.85242 21.7627C7.99919 21.8185 8.16855 21.7627 8.20242 21.651C8.23629 21.5394 8.12903 21.411 7.95968 21.3607C7.8129 21.3216 7.64919 21.3775 7.60968 21.4891ZM10.1048 21.3942C9.94113 21.4333 9.82823 21.5394 9.84516 21.6678C9.8621 21.7794 10.0089 21.852 10.1782 21.8129C10.3419 21.7739 10.4548 21.6678 10.4379 21.5561C10.421 21.45 10.2685 21.3775 10.1048 21.3942ZM13.8194 0C5.98952 0 0 5.87894 0 13.6226C0 19.8142 3.94032 25.1125 9.56855 26.9773C10.2911 27.1057 10.5452 26.6646 10.5452 26.3017C10.5452 25.9556 10.5282 24.0462 10.5282 22.8737C10.5282 22.8737 6.57661 23.7112 5.74677 21.21C5.74677 21.21 5.10323 19.5853 4.17742 19.1666C4.17742 19.1666 2.88468 18.29 4.26774 18.3068C4.26774 18.3068 5.67339 18.4185 6.44677 19.7472C7.68306 21.9023 9.75484 21.2826 10.5621 20.9141C10.6919 20.0208 11.0589 19.4011 11.4653 19.0326C8.30968 18.6864 5.12581 18.2342 5.12581 12.8633C5.12581 11.328 5.55484 10.5575 6.45806 9.57491C6.31129 9.21202 5.83145 7.71576 6.60484 5.78403C7.78468 5.42113 10.5 7.29145 10.5 7.29145C11.629 6.9788 12.8427 6.81689 14.0452 6.81689C15.2476 6.81689 16.4613 6.9788 17.5903 7.29145C17.5903 7.29145 20.3056 5.41555 21.4855 5.78403C22.2589 7.72134 21.779 9.21202 21.6323 9.57491C22.5355 10.5631 23.0887 11.3336 23.0887 12.8633C23.0887 18.251 19.7637 18.6809 16.6081 19.0326C17.1274 19.4736 17.5677 20.3111 17.5677 21.6231C17.5677 23.5046 17.5508 25.8327 17.5508 26.2905C17.5508 26.6534 17.8105 27.0945 18.5274 26.9661C24.1726 25.1125 28 19.8142 28 13.6226C28 5.87894 21.6492 0 13.8194 0ZM5.4871 19.2559C5.41371 19.3117 5.43065 19.4401 5.52661 19.5462C5.61694 19.6356 5.74677 19.6746 5.82016 19.6021C5.89355 19.5462 5.87661 19.4178 5.78065 19.3117C5.69032 19.2224 5.56048 19.1833 5.4871 19.2559ZM4.87742 18.8037C4.8379 18.8763 4.89435 18.9656 5.00726 19.0214C5.09758 19.0772 5.21048 19.0605 5.25 18.9823C5.28952 18.9098 5.23306 18.8204 5.12016 18.7646C5.00726 18.7311 4.91694 18.7478 4.87742 18.8037ZM6.70645 20.7912C6.61613 20.8638 6.65 21.0313 6.77984 21.1374C6.90968 21.2658 7.07339 21.2826 7.14677 21.1932C7.22016 21.1206 7.18629 20.9531 7.07339 20.8471C6.94919 20.7187 6.77984 20.7019 6.70645 20.7912ZM6.0629 19.9705C5.97258 20.0264 5.97258 20.1715 6.0629 20.2999C6.15323 20.4283 6.30565 20.4842 6.37903 20.4283C6.46936 20.3558 6.46936 20.2106 6.37903 20.0822C6.3 19.9538 6.15323 19.898 6.0629 19.9705Z" fill="#CCC5B9"/>
</svg>
