<svg width="27" height="27" viewBox="0 0 27 27" fill="none" xmlns="http://www.w3.org/2000/svg">
<path fill-rule="evenodd" clip-rule="evenodd" d="M27 0H0V27H27V0ZM18.3808 21.1407L16.3929 22.4561C16.556 22.8538 17.5352 25.0716 21.2291 25.0716C23.9791 25.0716 25.0714 22.9631 25.0714 21.6608C25.0714 19.0606 23.4989 18.2347 22.4308 17.7299C22.2231 17.6318 21.9792 17.5375 21.7228 17.4385C20.7429 17.06 19.5824 16.6117 19.5824 15.6115C19.5824 15.2551 19.8049 14.4721 20.8731 14.4721C21.3055 14.4721 22.008 14.755 22.4308 15.6115L24.3593 14.2656C23.3135 12.3001 21.2134 12.2466 20.7766 12.2466C20.1091 12.2466 17.1569 12.5984 17.1569 15.6574C17.1569 18.4347 19.6646 19.3928 20.3444 19.6525C20.4002 19.6738 20.4438 19.6905 20.4725 19.703C20.5286 19.7274 20.6107 19.7554 20.7103 19.7893C21.3215 19.9976 22.594 20.4311 22.594 21.6608C22.594 22.112 22.0154 22.7926 20.7692 22.7926C19.5231 22.7926 18.5365 21.6302 18.3808 21.1407ZM8.82194 21.4026L6.75 22.7173C6.93555 23.4359 8.07975 25.0716 10.832 25.0716C13.8255 25.0716 14.5038 22.6256 14.4626 21.4026V12.5359H11.9144V21.4026C11.9144 21.8536 11.4459 22.7938 10.5305 22.7938C9.61515 22.7938 8.98429 21.8918 8.82194 21.4026Z" fill="#CCC5B9"/>
</svg>
