<svg width="27" height="27" viewBox="0 0 27 27" fill="none" xmlns="http://www.w3.org/2000/svg">
<path d="M5.24075 15.4243L5.94277 11.6139H6.17991C6.26607 11.6139 6.356 11.6096 6.44991 11.6012C7.07609 11.5928 7.59639 11.6565 8.01126 11.7924C8.43388 11.9282 8.57475 12.4423 8.43388 13.3344C8.26178 14.3964 7.9251 15.0165 7.42429 15.195C6.92348 15.3649 6.2973 15.4455 5.54597 15.4371H5.38162C5.33466 15.4371 5.28771 15.4328 5.24075 15.4243Z" fill="#CCC5B9"/>
<path d="M19.1582 15.4243L19.8602 11.6139H20.0974C20.1835 11.6139 20.2735 11.6096 20.3674 11.6012C20.9936 11.5928 21.5139 11.6565 21.9287 11.7924C22.3513 11.9282 22.4922 12.4423 22.3513 13.3344C22.1792 14.3964 21.8426 15.0165 21.3417 15.195C20.8409 15.3649 20.2148 15.4455 19.4634 15.4371H19.2991C19.2521 15.4371 19.2052 15.4328 19.1582 15.4243Z" fill="#CCC5B9"/>
<path fill-rule="evenodd" clip-rule="evenodd" d="M13.5 27C20.9558 27 27 20.9558 27 13.5C27 6.04416 20.9558 0 13.5 0C6.04416 0 0 6.04416 0 13.5C0 20.9558 6.04416 27 13.5 27ZM11.9949 7.71429H13.615L13.1571 10.1484H14.6128C15.4111 10.1654 16.0058 10.3438 16.3972 10.6836C16.7964 11.0233 16.9138 11.6692 16.7494 12.6207L15.9629 16.8643H14.3193L15.0707 12.8118C15.1489 12.3869 15.1254 12.0854 15.0002 11.907C14.8751 11.7286 14.6051 11.6394 14.1902 11.6394L12.8871 11.6266L11.9245 16.8643H10.3044L11.9949 7.71429ZM4.5716 10.1484H7.71778C8.6412 10.1568 9.31035 10.4458 9.72522 11.015C10.1401 11.5841 10.277 12.3615 10.1361 13.3471C10.0814 13.7975 9.96001 14.2392 9.77218 14.6725C9.5921 15.1057 9.34181 15.4965 9.02085 15.8449C8.62947 16.2866 8.21083 16.567 7.76473 16.686C7.31863 16.805 6.85681 16.8644 6.37948 16.8644H4.97074L4.52464 19.2857H2.89286L4.5716 10.1484ZM18.4891 10.1484H21.6352C22.5587 10.1568 23.2278 10.4458 23.6427 11.015C24.0575 11.5841 24.1944 12.3615 24.0536 13.3471C23.9988 13.7975 23.8775 14.2392 23.6896 14.6725C23.5096 15.1057 23.2593 15.4965 22.9383 15.8449C22.5469 16.2866 22.1283 16.567 21.6822 16.686C21.2361 16.805 20.7743 16.8644 20.2969 16.8644H18.8882L18.4421 19.2857H16.8103L18.4891 10.1484Z" fill="#CCC5B9"/>
</svg>
