<svg width="29" height="25" viewBox="0 0 29 25" fill="none" xmlns="http://www.w3.org/2000/svg">
<path d="M17.0896 12.4768C17.0896 11.0976 15.9303 9.97935 14.5 9.97935C13.0699 9.97935 11.9104 11.0976 11.9104 12.4768C11.9104 13.8562 13.0699 14.9744 14.5 14.9744C15.9303 14.9744 17.0896 13.8562 17.0896 12.4768Z" fill="#CCC5B9"/>
<path fill-rule="evenodd" clip-rule="evenodd" d="M22.9104 7.8401C23.4572 5.69691 24.1447 1.72258 21.7214 0.375154C19.3095 -0.966397 16.1708 1.60425 14.5135 3.14729C12.8609 1.61963 9.63414 -0.940032 7.21291 0.411669C4.80192 1.75772 5.54542 5.66615 6.1044 7.82277C3.85537 8.43885 0 9.76577 0 12.4768C0 15.1802 3.85136 16.6238 6.08708 17.2393C5.52602 19.4079 4.81976 23.2605 7.23383 24.6035C9.66403 25.955 12.8809 23.4562 14.5535 21.8964C16.2215 23.4484 19.33 25.9635 21.7424 24.6168C24.1625 23.2657 23.5321 19.3446 22.9731 17.1755C25.1404 16.5586 29 15.1465 29 12.4768C29 9.7918 25.124 8.45411 22.9104 7.8401ZM22.6357 16.0259C22.2686 14.9054 21.7732 13.7137 21.1672 12.4828C21.7456 11.2809 22.2218 10.1046 22.5786 8.99123C24.2013 9.44497 27.7612 10.482 27.7612 12.4768C27.7612 14.4903 24.3451 15.5372 22.6357 16.0259ZM21.1216 23.5827C19.3218 24.5875 16.6481 22.1824 15.4162 21.0393C16.2334 20.1773 17.0501 19.1752 17.8471 18.0624C19.2491 17.9425 20.5736 17.7463 21.7748 17.4786C22.1682 19.0129 22.9295 22.5733 21.1216 23.5827ZM7.85283 23.5684C6.05271 22.5673 6.87549 19.1294 7.28825 17.5321C8.47607 17.7854 9.79095 17.9678 11.1963 18.0777C11.9986 19.1665 12.8388 20.1674 13.6857 21.0439C12.6394 22.02 9.66136 24.574 7.85283 23.5684ZM1.23877 12.4768C1.23877 10.4557 4.77733 9.42627 6.43707 8.97366C6.80003 10.112 7.27605 11.3023 7.85052 12.5059C7.26861 13.7275 6.78578 14.9367 6.41949 16.0884C4.8369 15.6516 1.23877 14.4992 1.23877 12.4768ZM7.83358 1.44571C9.64105 0.436696 12.4456 2.89406 13.6454 4.00012C12.8029 4.87264 11.9703 5.86596 11.175 6.94852C9.8111 7.07044 8.50546 7.26626 7.30519 7.52855C6.85488 5.78915 6.02805 2.45364 7.83358 1.44571ZM18.7333 8.2472C19.6586 8.35984 20.5451 8.50961 21.3775 8.69293C21.1277 9.46543 20.8162 10.2732 20.4494 11.1013C19.9176 10.1281 19.3468 9.17462 18.7333 8.2472ZM14.5139 4.85395C15.0852 5.45093 15.6575 6.1176 16.2204 6.84083C15.0786 6.7888 13.9348 6.78855 12.7929 6.84009C13.3563 6.12354 13.9335 5.45786 14.5139 4.85395ZM8.56129 11.1004C8.20051 10.2752 7.89185 9.46382 7.63978 8.6803C8.46721 8.50169 9.34957 8.35576 10.2689 8.24498C9.65373 9.17035 9.08386 10.1235 8.56129 11.1004ZM10.2953 16.794C9.34559 16.6917 8.44988 16.5532 7.62271 16.3796C7.87876 15.5822 8.19422 14.7534 8.5627 13.9104C9.0925 14.8974 9.671 15.8598 10.2953 16.794ZM14.5481 20.1841C13.961 19.573 13.3753 18.8972 12.8033 18.1703C13.9517 18.2138 15.1024 18.2139 16.2506 18.1644C15.6859 18.9046 15.1157 19.5815 14.5481 20.1841ZM20.4612 13.8675C20.8488 14.7196 21.1755 15.5439 21.435 16.3278C20.5941 16.5129 19.6864 16.6619 18.7298 16.7726C19.3479 15.8276 19.9277 14.8592 20.4612 13.8675ZM17.1557 16.9174C15.3991 17.0384 13.6315 17.0371 11.8743 16.9273C10.8758 15.5206 9.98706 14.0413 9.21982 12.5055C9.9833 10.973 10.8657 9.49657 11.8595 8.09211C13.618 7.9639 15.3872 7.9636 17.1457 8.09285C18.1309 9.49723 19.0119 10.9698 19.7931 12.4886C19.0212 14.0204 18.1342 15.4998 17.1557 16.9174ZM21.1026 1.41019C22.9106 2.4159 22.1058 5.98775 21.7109 7.54092C20.5078 7.27319 19.2012 7.07391 17.8333 6.95013C17.0365 5.85581 16.2108 4.86075 15.382 3.99951C16.5972 2.86962 19.3121 0.414315 21.1026 1.41019Z" fill="#CCC5B9"/>
</svg>
