<svg width="25" height="25" viewBox="0 0 25 25" fill="none" xmlns="http://www.w3.org/2000/svg">
<path fill-rule="evenodd" clip-rule="evenodd" d="M12.4987 1.75088C15.3025 1.75088 17.8554 2.8253 19.769 4.5844C18.8311 4.55924 17.8951 5.11678 17.8563 6.3935C17.7775 8.97454 20.9426 9.52434 19.2371 14.7159L17.8263 19.0102L13.9841 7.69201C13.9245 7.51681 13.9937 7.41711 14.2091 7.41711H15.2954C15.3518 7.41711 15.398 7.36891 15.398 7.30987V6.66647C15.398 6.60746 15.3517 6.55682 15.2954 6.55926C13.2383 6.64922 11.1932 6.64983 9.16052 6.55926C9.1039 6.55684 9.05792 6.60766 9.05792 6.6667V7.3101C9.05792 7.36907 9.10409 7.41734 9.16053 7.41734H10.2528C10.4957 7.41734 10.5637 7.4983 10.621 7.65491L12.1997 11.9724L9.82488 19.1435L5.92114 7.64523C5.87274 7.501 5.9313 7.41727 6.07021 7.41727H7.31475C7.37118 7.41727 7.41733 7.36907 7.41733 7.31003V6.66664C7.41733 6.60763 7.37102 6.55647 7.31475 6.55942C6.00898 6.62878 4.69823 6.64273 3.47726 6.65527C5.39327 3.70379 8.71774 1.75066 12.4981 1.75066L12.4981 1.75063L12.4987 1.75088ZM21.9517 7.38096C22.7776 8.90262 23.2466 10.646 23.2466 12.4985C23.2466 16.5641 20.9877 20.1027 17.6572 21.9292L21.0092 12.4351C21.5285 10.9658 22.0105 8.98001 21.9515 7.38096H21.9515H21.9517ZM16.0971 22.6281C14.9719 23.0284 13.7609 23.2466 12.4987 23.2466C11.4112 23.2466 10.362 23.0845 9.37275 22.7844L12.6839 13.2956L16.097 22.6286V22.6286L16.0971 22.6281ZM7.89953 22.2148C4.26483 20.491 1.75062 16.788 1.75062 12.499C1.75062 10.909 2.0965 9.39971 2.71639 8.04178L7.89977 22.215L7.89978 22.215L7.89953 22.2148ZM12.4984 0.742271C18.99 0.742271 24.2546 6.00695 24.2546 12.4985C24.2546 18.9901 18.99 24.2547 12.4984 24.2547C6.00684 24.2547 0.742165 18.9901 0.742165 12.4985C0.742165 6.00695 6.00684 0.742271 12.4984 0.742271V0.742271ZM12.4984 -0.000823975C19.4004 -0.000823975 24.998 5.59683 24.998 12.4988C24.998 19.4008 19.4004 24.9984 12.4984 24.9984C5.59643 24.9984 -0.0012207 19.4008 -0.0012207 12.4988C-0.0012207 5.59683 5.59643 -0.000823975 12.4984 -0.000823975V-0.000823975Z" fill="#CCC5B9"/>
</svg>
