<svg width="726" height="229" viewBox="0 0 726 229" fill="none" xmlns="http://www.w3.org/2000/svg">
<path d="M374.744 3.22964C373.57 5.26221 372.289 7.93662 371.968 9.11337C371.541 10.825 377.2 21.6296 393.214 49.2296L414.994 87.0994L362.68 87.4203C333.853 87.5273 310.151 87.4203 309.938 87.2064C309.724 86.9924 315.596 76.4017 322.856 63.6715L336.309 40.4576L333.213 35.0017L330.116 29.6529L328.515 32.1134C326.807 34.8948 312.5 59.4994 299.582 82.0715C295.098 89.8808 291.468 96.5134 291.468 96.7273C291.468 97.0483 323.177 97.2622 361.932 97.2622C405.386 97.2622 432.397 96.8343 432.397 96.2994C432.397 95.2296 427.593 86.7785 413.179 61.9599C409.229 55.2203 399.62 38.532 391.826 25.0529C384.033 11.4669 377.52 0.234299 377.306 0.02034C377.2 -0.193611 376.025 1.30406 374.744 3.22964Z" fill="#EB5E28"/>
<path d="M0 147.006V228.844L362.786 228.63L725.466 228.309L725.786 146.685L726 65.1692H577.063C495.175 65.1692 428.126 65.4901 428.126 65.8111C428.126 66.132 428.981 67.8436 429.941 69.5553L431.756 72.6576H574.608H717.459V146.472V220.285H363H8.54118V146.472V72.6576L150.538 72.4436L292.642 72.1227L294.777 68.5925L297.019 65.1692H148.51H0V147.006Z" fill="#EB5E28"/>
<path d="M110.501 110.634C101.854 114.165 93.0988 123.258 89.7891 132.03C82.7427 150.858 90.6432 170.969 108.686 179.848C114.986 183.058 116.801 183.379 124.915 183.379C133.029 183.379 134.844 183.058 141.143 179.848C166.553 167.332 170.076 133.206 147.869 115.448C138.154 107.746 122.566 105.713 110.501 110.634ZM138.047 122.723C146.588 127.323 151.606 135.774 151.606 145.616C151.499 164.979 131.214 177.816 113.704 169.579C94.8071 160.806 92.8853 134.383 110.288 123.579C119.256 118.016 128.758 117.802 138.047 122.723Z" fill="#EB5E28"/>
<path d="M662.155 110.206C653.293 114.592 649.236 124.969 652.759 134.062C655.001 139.839 658.845 142.941 670.696 148.397C680.305 152.89 683.294 155.779 683.294 160.699C683.294 167.76 678.383 172.146 670.589 172.146C665.358 172.146 661.301 168.937 659.699 163.481C658.952 161.234 658.311 159.309 658.204 159.309C658.098 159.309 655.535 160.058 652.546 160.913L646.994 162.625L649.129 168.081C651.478 174.392 654.574 178.03 660.019 180.811C676.141 189.048 695.038 177.602 695.038 159.523C695.038 150.858 689.273 144.439 675.5 138.02C665.358 133.42 663.009 131.388 663.009 127.43C663.116 117.802 676.354 115.662 682.013 124.327L683.935 127.109L688.419 124.22C690.874 122.616 692.903 121.011 692.903 120.583C692.903 118.658 685.536 111.704 681.693 109.992C675.821 107.318 667.813 107.425 662.155 110.206Z" fill="#EB5E28"/>
<path d="M36.3 114.378V119.727H44.8412H53.3823L53.5959 150.965L53.9162 182.309H59.2544H64.5926L64.9129 150.965L65.1265 119.727H73.6676H82.2088V114.378V109.03H59.2544H36.3V114.378Z" fill="#EB5E28"/>
<path d="M178.297 146.044V183.165L191.429 182.523C205.309 181.988 209.899 180.811 215.451 176.746C220.149 173.216 222.391 168.402 222.498 161.448C222.498 154.388 219.295 147.434 214.704 144.76L211.608 142.941L213.529 139.625C220.149 128.392 214.704 114.272 202.533 110.634C199.543 109.779 193.031 109.03 187.692 109.03H178.297V146.044ZM198.689 120.797C202.853 121.974 204.988 125.183 204.988 130.318C204.988 134.597 201.999 137.806 196.981 138.983C188.76 140.909 188.974 141.23 188.974 129.89V119.727H191.963C193.564 119.727 196.554 120.262 198.689 120.797ZM200.824 150.751C209.899 152.462 213.423 157.918 210.113 165.192C208.298 169.258 203.921 171.076 195.913 171.076H188.974V160.379V149.681H192.07C193.671 149.681 197.728 150.109 200.824 150.751Z" fill="#EB5E28"/>
<path d="M240.434 145.616L240.754 182.309L261.36 182.63L281.859 182.844V176.96V171.076H266.912H251.965V160.913V150.751H262.107H272.25V145.402V140.053H262.107H251.965V129.89V119.727H266.912H281.859V114.379V109.03H261.04H240.221L240.434 145.616Z" fill="#EB5E28"/>
<path d="M297.874 109.779C297.874 110.848 339.939 183.913 340.579 183.913C340.9 183.913 345.704 175.89 351.256 166.262C356.808 156.527 361.612 148.611 361.932 148.611C362.253 148.611 367.057 156.527 372.609 166.262C378.161 175.997 383.072 183.806 383.606 183.592C384.78 183.272 411.044 137.806 411.044 136.202C411.044 135.56 409.763 132.672 408.161 129.89C404.852 123.792 406.133 122.402 393.321 144.867C386.168 157.383 383.606 161.127 382.645 160.058C382.004 159.416 378.588 153.639 375.064 147.434L368.659 135.988L375.919 123.365C379.976 116.304 383.285 110.313 383.285 109.779C383.285 109.351 380.509 109.03 376.986 109.03H370.794L355.954 134.704C347.839 148.825 340.9 160.379 340.579 160.379C340.259 160.379 333.319 148.825 325.205 134.704L310.365 109.03H304.173C300.649 109.03 297.874 109.351 297.874 109.779Z" fill="#EB5E28"/>
<path d="M449.906 111.169C443.501 113.737 435.493 120.369 431.863 126.146C420.012 145.081 427.593 169.792 448.305 179.42C456.846 183.486 469.871 183.486 478.413 179.42C486.847 175.569 492.612 169.899 496.669 161.662C499.766 155.458 500.193 153.532 500.193 145.937C500.193 138.769 499.659 136.309 497.096 130.746C493.573 122.937 485.993 115.341 478.519 111.918C471.153 108.709 457.166 108.281 449.906 111.169ZM476.811 123.579C490.157 131.816 493.039 150.644 482.897 162.518C477.345 168.937 471.793 171.504 463.359 171.504C455.138 171.504 449.479 169.044 444.141 162.946C439.444 157.49 437.735 152.997 437.735 145.937C437.735 135.346 442.753 127.109 451.828 122.402C459.729 118.444 469.338 118.872 476.811 123.579Z" fill="#EB5E28"/>
<path d="M516.955 145.509L517.275 182.309L522.934 182.63L528.485 182.951V167.332C528.485 153.211 528.699 151.713 530.3 152.034C531.368 152.248 535.745 158.774 540.656 167.332L549.304 182.309L556.031 182.63C559.661 182.844 562.65 182.523 562.65 181.988C562.65 181.346 558.806 174.499 554.109 166.476C549.411 158.56 545.568 151.713 545.568 151.178C545.674 150.644 547.169 149.253 549.091 148.076C554.002 144.974 556.244 139.839 556.244 131.388C556.244 121.653 553.148 115.983 546.101 112.239C541.617 109.992 539.055 109.458 528.806 109.137L516.741 108.816L516.955 145.509ZM541.297 122.83C543.432 124.327 544.073 125.825 544.286 129.997C544.713 136.951 541.724 140.16 533.823 140.909L528.485 141.444V130.425V119.406L533.61 120.155C536.386 120.476 539.802 121.653 541.297 122.83Z" fill="#EB5E28"/>
<path d="M578.878 145.616L579.199 182.309L584.857 182.63L590.409 182.951V167.011V151.178L594.039 147.648L597.669 144.118L609.199 163.481L620.623 182.844H626.389C629.485 182.844 632.047 182.416 632.047 181.881C632.047 181.346 626.068 170.862 618.701 158.56L605.356 136.309L618.915 122.723L632.581 109.03H625.107H617.634L604.075 122.616L590.409 136.309V122.616V109.03H584.537H578.665L578.878 145.616Z" fill="#EB5E28"/>
</svg>
